<?xml version="1.0" encoding="UTF-8"?>
<!--Generator: Apple Native CoreSVG 175-->
<!DOCTYPE svg
PUBLIC "-//W3C//DTD SVG 1.1//EN"
       "http://www.w3.org/Graphics/SVG/1.1/DTD/svg11.dtd">
<svg version="1.1" xmlns="http://www.w3.org/2000/svg" xmlns:xlink="http://www.w3.org/1999/xlink" width="3300" height="2200">
 <!--glyph: "uni1001D5.medium", point size: 100.0, font version: "17.3d3e1", template writer version: "65.1"-->
 <g id="Notes">
  <rect height="2200" id="artboard" style="fill:white;opacity:1" width="3300" x="0" y="0"/>
  <line style="fill:none;stroke:black;opacity:1;stroke-width:0.5;" x1="263" x2="3036" y1="292" y2="292"/>
  <text style="stroke:none;fill:black;font-family:sans-serif;font-size:13;font-weight:bold;" transform="matrix(1 0 0 1 263 322)">Weight/Scale Variations</text>
  <text style="stroke:none;fill:black;font-family:sans-serif;font-size:13;text-anchor:middle;" transform="matrix(1 0 0 1 559.711 322)">Ultralight</text>
  <text style="stroke:none;fill:black;font-family:sans-serif;font-size:13;text-anchor:middle;" transform="matrix(1 0 0 1 856.422 322)">Thin</text>
  <text style="stroke:none;fill:black;font-family:sans-serif;font-size:13;text-anchor:middle;" transform="matrix(1 0 0 1 1153.13 322)">Light</text>
  <text style="stroke:none;fill:black;font-family:sans-serif;font-size:13;text-anchor:middle;" transform="matrix(1 0 0 1 1449.84 322)">Regular</text>
  <text style="stroke:none;fill:black;font-family:sans-serif;font-size:13;text-anchor:middle;" transform="matrix(1 0 0 1 1746.56 322)">Medium</text>
  <text style="stroke:none;fill:black;font-family:sans-serif;font-size:13;text-anchor:middle;" transform="matrix(1 0 0 1 2043.27 322)">Semibold</text>
  <text style="stroke:none;fill:black;font-family:sans-serif;font-size:13;text-anchor:middle;" transform="matrix(1 0 0 1 2339.98 322)">Bold</text>
  <text style="stroke:none;fill:black;font-family:sans-serif;font-size:13;text-anchor:middle;" transform="matrix(1 0 0 1 2636.69 322)">Heavy</text>
  <text style="stroke:none;fill:black;font-family:sans-serif;font-size:13;text-anchor:middle;" transform="matrix(1 0 0 1 2933.4 322)">Black</text>
  <line style="fill:none;stroke:black;opacity:1;stroke-width:0.5;" x1="263" x2="3036" y1="1903" y2="1903"/>
  <g transform="matrix(1 0 0 1 263 1933)">
   <path d="M9.24805 0.830078Q10.8691 0.830078 12.2949 0.214844Q13.7207-0.400391 14.8096-1.49414Q15.8984-2.58789 16.5186-4.01367Q17.1387-5.43945 17.1387-7.05078Q17.1387-8.66211 16.5186-10.0879Q15.8984-11.5137 14.8047-12.6074Q13.7109-13.7012 12.2852-14.3164Q10.8594-14.9316 9.23828-14.9316Q7.62695-14.9316 6.20117-14.3164Q4.77539-13.7012 3.69141-12.6074Q2.60742-11.5137 1.9873-10.0879Q1.36719-8.66211 1.36719-7.05078Q1.36719-5.43945 1.9873-4.01367Q2.60742-2.58789 3.69629-1.49414Q4.78516-0.400391 6.21094 0.214844Q7.63672 0.830078 9.24805 0.830078ZM9.24805-0.654297Q7.91992-0.654297 6.7627-1.14746Q5.60547-1.64062 4.73145-2.51953Q3.85742-3.39844 3.36426-4.56055Q2.87109-5.72266 2.87109-7.05078Q2.87109-8.37891 3.35938-9.54102Q3.84766-10.7031 4.72168-11.582Q5.5957-12.4609 6.75293-12.9541Q7.91016-13.4473 9.23828-13.4473Q10.5762-13.4473 11.7334-12.9541Q12.8906-12.4609 13.7695-11.582Q14.6484-10.7031 15.1465-9.54102Q15.6445-8.37891 15.6445-7.05078Q15.6445-5.72266 15.1514-4.56055Q14.6582-3.39844 13.7842-2.51953Q12.9102-1.64062 11.748-1.14746Q10.5859-0.654297 9.24805-0.654297ZM5.6543-7.05078Q5.6543-6.72852 5.85938-6.52832Q6.06445-6.32812 6.40625-6.32812L8.51562-6.32812L8.51562-4.20898Q8.51562-3.88672 8.71094-3.67676Q8.90625-3.4668 9.23828-3.4668Q9.56055-3.4668 9.77051-3.67676Q9.98047-3.88672 9.98047-4.20898L9.98047-6.32812L12.0898-6.32812Q12.4219-6.32812 12.627-6.52832Q12.832-6.72852 12.832-7.05078Q12.832-7.38281 12.627-7.58789Q12.4219-7.79297 12.0898-7.79297L9.98047-7.79297L9.98047-9.90234Q9.98047-10.2344 9.77051-10.4443Q9.56055-10.6543 9.23828-10.6543Q8.90625-10.6543 8.71094-10.4443Q8.51562-10.2344 8.51562-9.90234L8.51562-7.79297L6.40625-7.79297Q6.06445-7.79297 5.85938-7.58789Q5.6543-7.38281 5.6543-7.05078Z"/>
  </g>
  <g transform="matrix(1 0 0 1 281.867 1933)">
   <path d="M11.709 2.91016Q13.75 2.91016 15.5518 2.12891Q17.3535 1.34766 18.7305-0.0292969Q20.1074-1.40625 20.8887-3.20801Q21.6699-5.00977 21.6699-7.05078Q21.6699-9.0918 20.8887-10.8936Q20.1074-12.6953 18.7305-14.0723Q17.3535-15.4492 15.5469-16.2305Q13.7402-17.0117 11.6992-17.0117Q9.6582-17.0117 7.85645-16.2305Q6.05469-15.4492 4.68262-14.0723Q3.31055-12.6953 2.5293-10.8936Q1.74805-9.0918 1.74805-7.05078Q1.74805-5.00977 2.5293-3.20801Q3.31055-1.40625 4.6875-0.0292969Q6.06445 1.34766 7.86621 2.12891Q9.66797 2.91016 11.709 2.91016ZM11.709 1.25Q9.98047 1.25 8.47656 0.605469Q6.97266-0.0390625 5.83496-1.17676Q4.69727-2.31445 4.05762-3.81836Q3.41797-5.32227 3.41797-7.05078Q3.41797-8.7793 4.05762-10.2832Q4.69727-11.7871 5.83008-12.9297Q6.96289-14.0723 8.4668-14.7119Q9.9707-15.3516 11.6992-15.3516Q13.4277-15.3516 14.9316-14.7119Q16.4355-14.0723 17.5781-12.9297Q18.7207-11.7871 19.3652-10.2832Q20.0098-8.7793 20.0098-7.05078Q20.0098-5.32227 19.3701-3.81836Q18.7305-2.31445 17.5928-1.17676Q16.4551-0.0390625 14.9463 0.605469Q13.4375 1.25 11.709 1.25ZM7.17773-7.05078Q7.17773-6.69922 7.41211-6.47461Q7.64648-6.25 8.01758-6.25L10.8887-6.25L10.8887-3.36914Q10.8887-2.99805 11.1133-2.76855Q11.3379-2.53906 11.6895-2.53906Q12.0605-2.53906 12.29-2.76855Q12.5195-2.99805 12.5195-3.36914L12.5195-6.25L15.4004-6.25Q15.7715-6.25 16.001-6.47461Q16.2305-6.69922 16.2305-7.05078Q16.2305-7.42188 16.001-7.65137Q15.7715-7.88086 15.4004-7.88086L12.5195-7.88086L12.5195-10.752Q12.5195-11.1328 12.29-11.3623Q12.0605-11.5918 11.6895-11.5918Q11.3379-11.5918 11.1133-11.3574Q10.8887-11.123 10.8887-10.752L10.8887-7.88086L8.01758-7.88086Q7.63672-7.88086 7.40723-7.65137Q7.17773-7.42188 7.17773-7.05078Z"/>
  </g>
  <g transform="matrix(1 0 0 1 305.646 1933)">
   <path d="M14.9707 5.66406Q17.0605 5.66406 18.96 5.01465Q20.8594 4.36523 22.4512 3.19336Q24.043 2.02148 25.2197 0.429688Q26.3965-1.16211 27.0459-3.06641Q27.6953-4.9707 27.6953-7.05078Q27.6953-9.14062 27.0459-11.04Q26.3965-12.9395 25.2197-14.5312Q24.043-16.123 22.4512-17.2998Q20.8594-18.4766 18.9551-19.126Q17.0508-19.7754 14.9609-19.7754Q12.8711-19.7754 10.9717-19.126Q9.07227-18.4766 7.48535-17.2998Q5.89844-16.123 4.72168-14.5312Q3.54492-12.9395 2.90039-11.04Q2.25586-9.14062 2.25586-7.05078Q2.25586-4.9707 2.90527-3.06641Q3.55469-1.16211 4.72656 0.429688Q5.89844 2.02148 7.49023 3.19336Q9.08203 4.36523 10.9814 5.01465Q12.8809 5.66406 14.9707 5.66406ZM14.9707 3.84766Q13.1641 3.84766 11.5283 3.2959Q9.89258 2.74414 8.53516 1.74805Q7.17773 0.751953 6.17676-0.610352Q5.17578-1.97266 4.62891-3.6084Q4.08203-5.24414 4.08203-7.05078Q4.08203-8.86719 4.62891-10.5029Q5.17578-12.1387 6.17188-13.501Q7.16797-14.8633 8.52539-15.8594Q9.88281-16.8555 11.5186-17.4023Q13.1543-17.9492 14.9609-17.9492Q16.7773-17.9492 18.4131-17.4023Q20.0488-16.8555 21.4111-15.8594Q22.7734-14.8633 23.7695-13.501Q24.7656-12.1387 25.3174-10.5029Q25.8691-8.86719 25.8691-7.05078Q25.8789-5.24414 25.332-3.6084Q24.7852-1.97266 23.7842-0.610352Q22.7832 0.751953 21.4209 1.74805Q20.0586 2.74414 18.4229 3.2959Q16.7871 3.84766 14.9707 3.84766ZM9.19922-7.05078Q9.19922-6.66992 9.45801-6.4209Q9.7168-6.17188 10.1172-6.17188L14.0625-6.17188L14.0625-2.2168Q14.0625-1.81641 14.3115-1.55762Q14.5605-1.29883 14.9512-1.29883Q15.3516-1.29883 15.6104-1.55273Q15.8691-1.80664 15.8691-2.2168L15.8691-6.17188L19.8242-6.17188Q20.2246-6.17188 20.4785-6.4209Q20.7324-6.66992 20.7324-7.05078Q20.7324-7.46094 20.4785-7.71484Q20.2246-7.96875 19.8242-7.96875L15.8691-7.96875L15.8691-11.9141Q15.8691-12.3242 15.6104-12.583Q15.3516-12.8418 14.9512-12.8418Q14.5605-12.8418 14.3115-12.583Q14.0625-12.3242 14.0625-11.9141L14.0625-7.96875L10.1172-7.96875Q9.70703-7.96875 9.45312-7.71484Q9.19922-7.46094 9.19922-7.05078Z"/>
  </g>
  <text style="stroke:none;fill:black;font-family:sans-serif;font-size:13;font-weight:bold;" transform="matrix(1 0 0 1 263 1953)">Design Variations</text>
  <text style="stroke:none;fill:black;font-family:sans-serif;font-size:13;" transform="matrix(1 0 0 1 263 1971)">Symbols are supported in up to nine weights and three scales.</text>
  <text style="stroke:none;fill:black;font-family:sans-serif;font-size:13;" transform="matrix(1 0 0 1 263 1989)">For optimal layout with text and other symbols, vertically align</text>
  <text style="stroke:none;fill:black;font-family:sans-serif;font-size:13;" transform="matrix(1 0 0 1 263 2007)">symbols with the adjacent text.</text>
  <line style="fill:none;stroke:#00AEEF;stroke-width:0.5;opacity:1.0;" x1="776" x2="776" y1="1919" y2="1933"/>
  <g transform="matrix(1 0 0 1 776 1933)">
   <path d="M3.31055 0.15625Q3.70117 0.15625 3.91602-0.00976562Q4.13086-0.175781 4.26758-0.585938L5.52734-4.0332L11.2891-4.0332L12.5488-0.585938Q12.6855-0.175781 12.9004-0.00976562Q13.1152 0.15625 13.4961 0.15625Q13.8867 0.15625 14.1162-0.0585938Q14.3457-0.273438 14.3457-0.644531Q14.3457-0.869141 14.2383-1.17188L9.6582-13.3691Q9.48242-13.8184 9.17969-14.043Q8.87695-14.2676 8.4082-14.2676Q7.5-14.2676 7.17773-13.3789L2.59766-1.16211Q2.49023-0.859375 2.49023-0.634766Q2.49023-0.263672 2.70996-0.0537109Q2.92969 0.15625 3.31055 0.15625ZM6.00586-5.51758L8.37891-12.0898L8.42773-12.0898L10.8008-5.51758Z"/>
  </g>
  <line style="fill:none;stroke:#00AEEF;stroke-width:0.5;opacity:1.0;" x1="793.197" x2="793.197" y1="1919" y2="1933"/>
  <text style="stroke:none;fill:black;font-family:sans-serif;font-size:13;font-weight:bold;" transform="matrix(1 0 0 1 776 1953)">Margins</text>
  <text style="stroke:none;fill:black;font-family:sans-serif;font-size:13;" transform="matrix(1 0 0 1 776 1971)">Leading and trailing margins on the left and right side of each symbol</text>
  <text style="stroke:none;fill:black;font-family:sans-serif;font-size:13;" transform="matrix(1 0 0 1 776 1989)">can be adjusted by modifying the x-location of the margin guidelines.</text>
  <text style="stroke:none;fill:black;font-family:sans-serif;font-size:13;" transform="matrix(1 0 0 1 776 2007)">Modifications are automatically applied proportionally to all</text>
  <text style="stroke:none;fill:black;font-family:sans-serif;font-size:13;" transform="matrix(1 0 0 1 776 2025)">scales and weights.</text>
  <g transform="matrix(1 0 0 1 1289 1933)">
   <path d="M2.8418 1.86523L4.54102 3.57422Q5.18555 4.22852 5.90332 4.17969Q6.62109 4.13086 7.31445 3.35938L18.0078-8.42773L17.041-9.4043L6.42578 2.27539Q6.16211 2.57812 5.89355 2.61719Q5.625 2.65625 5.27344 2.30469L4.10156 1.14258Q3.75 0.791016 3.79395 0.522461Q3.83789 0.253906 4.14062-0.0195312L15.6152-10.8203L14.6387-11.7871L3.04688-0.898438Q2.30469-0.214844 2.25098 0.498047Q2.19727 1.21094 2.8418 1.86523ZM9.25781-16.3281Q8.94531-16.0254 8.90625-15.6348Q8.86719-15.2441 9.04297-14.9512Q9.21875-14.6777 9.55566-14.541Q9.89258-14.4043 10.3809-14.5215Q11.4746-14.7754 12.5977-14.7314Q13.7207-14.6875 14.7949-13.9844L14.209-12.5293Q13.9551-11.9043 14.0674-11.4404Q14.1797-10.9766 14.5801-10.5664L16.875-8.25195Q17.2363-7.88086 17.5781-7.82227Q17.9199-7.76367 18.3398-7.8418L19.4043-8.03711L20.0684-7.36328L20.0293-6.80664Q20-6.43555 20.1221-6.12305Q20.2441-5.81055 20.6055-5.44922L21.3672-4.70703Q21.7285-4.3457 22.1533-4.33105Q22.5781-4.31641 22.9297-4.66797L25.8398-7.58789Q26.1914-7.93945 26.1816-8.35449Q26.1719-8.76953 25.8105-9.13086L25.0391-9.89258Q24.6875-10.2539 24.3799-10.3857Q24.0723-10.5176 23.7109-10.4883L23.1348-10.4395L22.4902-11.0742L22.7344-12.1973Q22.832-12.6172 22.6953-12.9834Q22.5586-13.3496 22.1191-13.7891L19.9219-15.9766Q18.6719-17.2168 17.2607-17.8369Q15.8496-18.457 14.4189-18.4814Q12.9883-18.5059 11.665-17.959Q10.3418-17.4121 9.25781-16.3281ZM10.752-15.957Q11.6602-16.6211 12.7002-16.9043Q13.7402-17.1875 14.8047-17.085Q15.8691-16.9824 16.8701-16.5137Q17.8711-16.0449 18.7012-15.2051L21.1328-12.793Q21.3086-12.6172 21.3525-12.4512Q21.3965-12.2852 21.3379-12.0312L21.0156-10.5469L22.5195-9.0625L23.5059-9.12109Q23.6914-9.13086 23.7891-9.09668Q23.8867-9.0625 24.0332-8.91602L24.6094-8.33984L22.168-5.89844L21.5918-6.47461Q21.4453-6.62109 21.4062-6.71875Q21.3672-6.81641 21.377-7.01172L21.4453-7.98828L19.9512-9.47266L18.4277-9.21875Q18.1836-9.16992 18.042-9.2041Q17.9004-9.23828 17.7148-9.41406L15.7129-11.416Q15.5176-11.5918 15.4932-11.7529Q15.4688-11.9141 15.5859-12.1875L16.4648-14.2773Q15.293-15.3711 13.8281-15.791Q12.3633-16.2109 10.8398-15.7617Q10.7227-15.7324 10.6885-15.8057Q10.6543-15.8789 10.752-15.957Z"/>
  </g>
  <text style="stroke:none;fill:black;font-family:sans-serif;font-size:13;font-weight:bold;" transform="matrix(1 0 0 1 1289 1953)">Exporting</text>
  <text style="stroke:none;fill:black;font-family:sans-serif;font-size:13;" transform="matrix(1 0 0 1 1289 1971)">Symbols should be outlined when exporting to ensure the</text>
  <text style="stroke:none;fill:black;font-family:sans-serif;font-size:13;" transform="matrix(1 0 0 1 1289 1989)">design is preserved when submitting to Xcode.</text>
  <text id="template-version" style="stroke:none;fill:black;font-family:sans-serif;font-size:13;text-anchor:end;" transform="matrix(1 0 0 1 3036 1933)">Template v.3.0</text>
  <text style="stroke:none;fill:black;font-family:sans-serif;font-size:13;text-anchor:end;" transform="matrix(1 0 0 1 3036 1951)">Requires Xcode 13 or greater</text>
  <text id="descriptive-name" style="stroke:none;fill:black;font-family:sans-serif;font-size:13;text-anchor:end;" transform="matrix(1 0 0 1 3036 1969)">Generated from cloud.sun.fill</text>
  <text style="stroke:none;fill:black;font-family:sans-serif;font-size:13;text-anchor:end;" transform="matrix(1 0 0 1 3036 1987)">Typeset at 100 points</text>
  <text style="stroke:none;fill:black;font-family:sans-serif;font-size:13;" transform="matrix(1 0 0 1 263 726)">Small</text>
  <text style="stroke:none;fill:black;font-family:sans-serif;font-size:13;" transform="matrix(1 0 0 1 263 1156)">Medium</text>
  <text style="stroke:none;fill:black;font-family:sans-serif;font-size:13;" transform="matrix(1 0 0 1 263 1586)">Large</text>
 </g>
 <g id="Guides">
  <g id="H-reference" style="fill:#27AAE1;stroke:none;" transform="matrix(1 0 0 1 339 696)">
   <path d="M0.993347 0L3.6377 0L29.3282-67.1326L30.0301-67.1326L30.0301-70.459L28.1227-70.459ZM11.6882-24.4797L46.9818-24.4797L46.2311-26.7288L12.4382-26.7288ZM55.1193 0L57.7637 0L30.6381-70.459L29.4327-70.459L29.4327-67.1326Z"/>
  </g>
  <line id="Baseline-S" style="fill:none;stroke:#27AAE1;opacity:1;stroke-width:0.5;" x1="263" x2="3036" y1="696" y2="696"/>
  <line id="Capline-S" style="fill:none;stroke:#27AAE1;opacity:1;stroke-width:0.5;" x1="263" x2="3036" y1="625.541" y2="625.541"/>
  <g id="H-reference" style="fill:#27AAE1;stroke:none;" transform="matrix(1 0 0 1 339 1126)">
   <path d="M0.993347 0L3.6377 0L29.3282-67.1326L30.0301-67.1326L30.0301-70.459L28.1227-70.459ZM11.6882-24.4797L46.9818-24.4797L46.2311-26.7288L12.4382-26.7288ZM55.1193 0L57.7637 0L30.6381-70.459L29.4327-70.459L29.4327-67.1326Z"/>
  </g>
  <line id="Baseline-M" style="fill:none;stroke:#27AAE1;opacity:1;stroke-width:0.5;" x1="263" x2="3036" y1="1126" y2="1126"/>
  <line id="Capline-M" style="fill:none;stroke:#27AAE1;opacity:1;stroke-width:0.5;" x1="263" x2="3036" y1="1055.54" y2="1055.54"/>
  <g id="H-reference" style="fill:#27AAE1;stroke:none;" transform="matrix(1 0 0 1 339 1556)">
   <path d="M0.993347 0L3.6377 0L29.3282-67.1326L30.0301-67.1326L30.0301-70.459L28.1227-70.459ZM11.6882-24.4797L46.9818-24.4797L46.2311-26.7288L12.4382-26.7288ZM55.1193 0L57.7637 0L30.6381-70.459L29.4327-70.459L29.4327-67.1326Z"/>
  </g>
  <line id="Baseline-L" style="fill:none;stroke:#27AAE1;opacity:1;stroke-width:0.5;" x1="263" x2="3036" y1="1556" y2="1556"/>
  <line id="Capline-L" style="fill:none;stroke:#27AAE1;opacity:1;stroke-width:0.5;" x1="263" x2="3036" y1="1485.54" y2="1485.54"/>
  <line id="left-margin-Regular-M" style="fill:none;stroke:#00AEEF;stroke-width:0.5;opacity:1.0;" x1="1378.92" x2="1378.92" y1="1030.79" y2="1150.12"/>
  <line id="right-margin-Regular-M" style="fill:none;stroke:#FF3B30;stroke-width:0.5;opacity:1.0;" x1="1520.77" x2="1520.77" y1="1030.79" y2="1150.12"/>
 </g>
 <g id="Symbols">
  <g id="Black-L" transform="matrix(1 0 0 1 2835.54 1556)">
   <path d="M33.6276 25.065L109.372 25.065Q118.625 25.065 125.925 20.6841Q133.225 16.3033 137.483 8.77581Q141.741 1.24836 141.741-8.18953Q141.741-18.0751 137.198-25.7733Q132.654-33.4716 124.722-37.8889Q116.79-42.3061 106.588-42.2685Q103.377-48.3473 98.1285-53.5608Q92.8796-58.7742 85.374-61.9871Q77.8685-65.2 67.8827-65.2Q56.5824-65.2 47.1325-60.101Q37.6826-55.002 31.7282-46.1925Q25.7737-37.3829 24.8683-26.3091Q16.2082-23.9997 11.0245-17.1778Q5.84068-10.3559 5.84068-1.09057Q5.84068 10.5527 13.5152 17.8089Q21.1897 25.065 33.6276 25.065ZM152.274-18.0266Q158.463-22.3726 162.24-29.3811Q166.017-36.3896 166.017-44.6468Q166.017-53.695 161.614-61.0887Q157.21-68.4823 149.798-72.8858Q142.386-77.2892 133.338-77.2892Q124.505-77.2892 117.171-73.0613Q109.838-68.8334 105.908-62.3067Q110.379-57.9633 113.363-52.1603Q123.14-51.6297 131.339-47.1364Q139.537-42.643 145.032-35.1453Q150.528-27.6476 152.274-18.0266ZM92.8223-74.6933Q94.9788-72.5356 98.0674-72.5168Q101.156-72.498 103.234-74.5765Q105.371-76.733 105.323-79.7424Q105.275-82.7518 103.118-84.9679L95.3906-92.8702Q93.3109-95.0083 90.2041-95.0077Q87.0973-95.0071 84.9604-92.8702Q82.8611-90.7709 82.9195-87.7225Q82.9779-84.6741 85.0772-82.5164ZM133.223-87.0119Q136.271-87.0119 138.4-89.2385Q140.529-91.4651 140.529-94.433L140.529-105.436Q140.529-108.485 138.4-110.672Q136.271-112.859 133.223-112.859Q130.233-112.859 128.074-110.672Q125.916-108.485 125.916-105.436L125.916-94.433Q125.916-91.4651 128.074-89.2385Q130.233-87.0119 133.223-87.0119ZM182.986-37.3413L193.99-37.3413Q197.04-37.3413 199.216-39.4699Q201.393-41.5984 201.393-44.5884Q201.393-47.6368 199.216-49.7939Q197.04-51.951 193.99-51.951L182.986-51.951Q180.016-51.951 177.79-49.7939Q175.565-47.6368 175.565-44.5884Q175.565-41.5984 177.79-39.4699Q180.016-37.3413 182.986-37.3413ZM163.269-74.5181Q165.406-72.4396 168.504-72.4876Q171.603-72.5356 173.702-74.6349L181.504-82.3996Q183.663-84.5573 183.682-87.6349Q183.7-90.7125 181.563-92.8118Q179.464-94.9487 176.397-94.8909Q173.33-94.8331 171.171-92.695L163.328-84.9679Q161.191-82.8686 161.191-79.7716Q161.191-76.6746 163.269-74.5181ZM171.113 3.57904Q173.272 5.73797 176.339 5.75617Q179.405 5.77436 181.504 3.67503Q183.641 1.53809 183.594-1.48107Q183.547-4.50024 181.388-6.69556L173.661-14.5783Q171.561-16.714 168.465-16.7244Q165.368-16.7348 163.211-14.5783Q161.132-12.4997 161.191-9.44035Q161.249-6.38098 163.328-4.24406Z"/>
  </g>
  <g id="Heavy-L" transform="matrix(1 0 0 1 2540.37 1556)">
   <path d="M33.3886 23.6004L107.379 23.6004Q116.556 23.6004 123.822 19.2876Q131.089 14.9749 135.332 7.57237Q139.574 0.169841 139.574-9.09095Q139.574-18.6842 135.092-26.1864Q130.61-33.6886 122.794-38.0102Q114.979-42.3318 104.963-42.3173Q101.656-48.5842 96.3812-53.7532Q91.1064-58.9223 83.766-62.0197Q76.4256-65.1172 66.9558-65.1172Q55.907-65.1172 46.6372-60.0733Q37.3673-55.0294 31.5083-46.3417Q25.6493-37.654 24.7345-26.75Q16.2487-24.4302 11.131-17.747Q6.01334-11.0639 6.01334-1.9782Q6.01334 9.35723 13.5593 16.4788Q21.1053 23.6004 33.3886 23.6004ZM149.274-17.4455Q155.668-21.8576 159.516-28.8631Q163.364-35.8686 163.364-44.1645Q163.364-53.1085 159.013-60.423Q154.662-67.7375 147.343-72.0888Q140.024-76.4401 131.08-76.4401Q122.283-76.4401 115.012-72.1837Q107.742-67.9272 103.828-61.2863Q108.216-56.967 111.137-51.3328Q121.032-50.7328 129.106-46.277Q137.181-41.8211 142.452-34.4029Q147.723-26.9847 149.274-17.4455ZM91.6334-73.9905Q93.614-72.0043 96.4587-71.9971Q99.3035-71.9898 101.215-73.9012Q103.171-75.8818 103.141-78.6517Q103.112-81.4217 101.126-83.4525L92.8474-91.8645Q90.9304-93.8262 88.0812-93.8233Q85.232-93.8205 83.2761-91.8645Q81.3346-89.9229 81.3792-87.1184Q81.4238-84.3139 83.3653-82.3277ZM130.996-86.2677Q133.801-86.2677 135.767-88.3136Q137.734-90.3595 137.734-93.0836L137.734-104.818Q137.734-107.622 135.767-109.631Q133.801-111.639 130.996-111.639Q128.236-111.639 126.247-109.631Q124.258-107.622 124.258-104.818L124.258-93.0836Q124.258-90.3595 126.247-88.3136Q128.236-86.2677 130.996-86.2677ZM179.874-37.4322L191.613-37.4322Q194.424-37.4322 196.417-39.3961Q198.41-41.3599 198.41-44.1199Q198.41-46.9244 196.417-48.9078Q194.424-50.8911 191.613-50.8911L179.874-50.8911Q177.144-50.8911 175.101-48.9078Q173.058-46.9244 173.058-44.1199Q173.058-41.3599 175.101-39.3961Q177.144-37.4322 179.874-37.4322ZM160.822-73.8566Q162.778-71.9452 165.635-71.9748Q168.492-72.0043 170.434-73.9458L178.741-82.2385Q180.733-84.2246 180.737-87.0515Q180.741-89.8783 178.785-91.8199Q176.844-93.7759 174.035-93.7341Q171.226-93.6923 169.234-91.7306L160.867-83.4525Q158.911-81.5109 158.911-78.6741Q158.911-75.8372 160.822-73.8566ZM169.19 3.54681Q171.181 5.53853 173.99 5.54295Q176.799 5.54736 178.741 3.60582Q180.697 1.6498 180.67-1.13242Q180.643-3.91464 178.652-5.91519L170.373-14.3027Q168.432-16.2531 165.598-16.2682Q162.764-16.2833 160.777-14.3027Q158.866-12.3913 158.911-9.56889Q158.955-6.74647 160.867-4.79054Z"/>
  </g>
  <g id="Bold-L" transform="matrix(1 0 0 1 2245.47 1556)">
   <path d="M33.0517 21.8763L105.129 21.8763Q114.198 21.8763 121.411 17.6519Q128.624 13.4274 132.84 6.18599Q137.056-1.0554 137.056-10.0859Q137.056-19.3255 132.651-26.5856Q128.246-33.8457 120.576-38.0483Q112.906-42.2509 103.121-42.2595Q99.7063-48.742 94.4119-53.8722Q89.1175-59.0023 81.9659-61.98Q74.8143-64.9576 65.9002-64.9576Q55.1515-64.9576 46.1044-59.9754Q37.0574-54.9932 31.3213-46.4404Q25.5851-37.8877 24.6624-27.1764Q16.3768-24.8637 11.3064-18.3571Q6.23594-11.8505 6.23594-2.95773Q6.23594 7.96371 13.602 14.92Q20.968 21.8763 33.0517 21.8763ZM145.697-16.8276Q152.359-21.2869 156.322-28.2998Q160.284-35.3126 160.284-43.6919Q160.284-52.4979 156.002-59.7051Q151.72-66.9123 144.523-71.1946Q137.327-75.4768 128.521-75.4768Q119.711-75.4768 112.491-71.1336Q105.271-66.7905 101.418-59.944Q105.706-55.6331 108.542-50.2064Q118.524-49.5368 126.426-45.1457Q134.328-40.7545 139.337-33.4734Q144.346-26.1923 145.697-16.8276ZM90.4935-73.2712Q92.2291-71.5224 94.7368-71.5268Q97.2446-71.5311 98.926-73.2128Q100.637-74.9483 100.627-77.3889Q100.616-79.8294 98.8676-81.6073L89.8311-90.7314Q88.1364-92.4555 85.6396-92.4489Q83.1427-92.4422 81.4321-90.7314Q79.7126-89.0119 79.7418-86.5444Q79.771-84.0768 81.4905-82.3281ZM128.476-85.5022Q130.944-85.5022 132.684-87.2991Q134.425-89.0961 134.425-91.4831L134.425-104.243Q134.425-106.71 132.684-108.474Q130.944-110.237 128.476-110.237Q126.038-110.237 124.282-108.474Q122.527-106.71 122.527-104.243L122.527-91.4831Q122.527-89.0961 124.282-87.2991Q126.038-85.5022 128.476-85.5022ZM176.203-37.756L188.976-37.756Q191.457-37.756 193.201-39.4902Q194.945-41.2243 194.945-43.6627Q194.945-46.1303 193.201-47.8724Q191.457-49.6144 188.976-49.6144L176.203-49.6144Q173.803-49.6144 172.012-47.8724Q170.222-46.1303 170.222-43.6627Q170.222-41.2243 172.012-39.4902Q173.803-37.756 176.203-37.756ZM158.055-73.1835Q159.766-71.5019 162.286-71.5122Q164.806-71.5224 166.526-73.242L175.545-82.2697Q177.307-84.0184 177.296-86.5005Q177.285-88.9827 175.574-90.7022Q173.855-92.413 171.398-92.3905Q168.942-92.3679 167.18-90.6438L158.085-81.6073Q156.374-79.8878 156.374-77.4035Q156.374-74.9191 158.055-73.1835ZM167.15 3.37427Q168.912 5.13609 171.369 5.12509Q173.825 5.11408 175.545 3.39457Q177.256 1.68374 177.252-0.76918Q177.248-3.2221 175.487-4.96191L166.45-14.0614Q164.73-15.7589 162.253-15.778Q159.775-15.797 158.026-14.0614Q156.345-12.3798 156.374-9.88666Q156.403-7.39353 158.085-5.68292Z"/>
  </g>
  <g id="Semibold-L" transform="matrix(1 0 0 1 1950.01 1556)">
   <path d="M32.8195 20.6878L103.577 20.6878Q112.573 20.6878 119.749 16.5242Q126.925 12.3605 131.123 5.23023Q135.321-1.90007 135.321-10.7718Q135.321-19.7676 130.968-26.8608Q126.616-33.954 119.047-38.0745Q111.478-42.195 101.851-42.2197Q98.3622-48.8509 93.0543-53.9542Q87.7464-59.0575 80.7249-61.9525Q73.7034-64.8476 65.1725-64.8476Q54.6306-64.8476 45.7372-59.9079Q36.8438-54.9682 31.1923-46.5084Q25.5409-38.0487 24.6127-27.4703Q16.4652-25.1625 11.4273-18.7776Q6.3894-12.3927 6.3894-3.63302Q6.3894 7.00302 13.6314 13.8454Q20.8734 20.6878 32.8195 20.6878ZM143.231-16.4016Q150.078-20.8935 154.119-27.9114Q158.161-34.9292 158.161-43.3661Q158.161-52.0769 153.926-59.2102Q149.691-66.3434 142.58-70.5781Q135.468-74.8127 126.758-74.8127Q117.937-74.8127 110.753-70.4097Q103.568-66.0068 99.7561-59.0186Q103.975-54.7135 106.753-49.4299Q116.795-48.7123 124.578-44.3658Q132.361-40.0192 137.19-32.8327Q142.019-25.6461 143.231-16.4016ZM89.7077-72.7753Q91.2744-71.1903 93.5498-71.2026Q95.8252-71.2149 97.3481-72.7381Q98.8899-74.3048 98.8929-76.5183Q98.896-78.7317 97.311-80.3353L87.7518-89.9502Q86.2102-91.5107 83.9563-91.5013Q81.7024-91.492 80.1609-89.9502Q78.5945-88.3838 78.613-86.1486Q78.6316-83.9134 80.198-82.3284ZM126.739-84.9744Q128.974-84.9744 130.559-86.5998Q132.144-88.2251 132.144-90.3797L132.144-103.847Q132.144-106.082 130.559-107.676Q128.974-109.271 126.739-109.271Q124.522-109.271 122.928-107.676Q121.334-106.082 121.334-103.847L121.334-90.3797Q121.334-88.2251 122.928-86.5998Q124.522-84.9744 126.739-84.9744ZM173.672-37.9793L187.158-37.9793Q189.411-37.9793 190.984-39.555Q192.557-41.1307 192.557-43.3475Q192.557-45.5829 190.984-47.1586Q189.411-48.7343 187.158-48.7343L173.672-48.7343Q171.499-48.7343 169.883-47.1586Q168.267-45.5829 168.267-43.3475Q168.267-41.1307 169.883-39.555Q171.499-37.9793 173.672-37.9793ZM156.148-72.7196Q157.69-71.1963 159.978-71.1933Q162.265-71.1903 163.832-72.7567L173.342-82.2912Q174.945-83.8763 174.923-86.1207Q174.902-88.3652 173.36-89.9317Q171.794-91.4735 169.58-91.4642Q167.367-91.4549 165.763-89.8945L156.166-80.3353Q154.625-78.7689 154.625-76.5276Q154.625-74.2862 156.148-72.7196ZM165.745 3.25532Q167.348 4.85865 169.562 4.83701Q171.775 4.81538 173.342 3.24894Q174.883 1.70714 174.896-0.518764Q174.908-2.74466 173.305-4.30473L163.745-13.8951Q162.179-15.4182 159.946-15.44Q157.714-15.4617 156.129-13.8951Q154.606-12.3718 154.625-10.1057Q154.644-7.83961 156.166-6.29812Z"/>
  </g>
  <g id="Medium-L" transform="matrix(1 0 0 1 1654.25 1556)">
   <path d="M32.6434 19.7866L102.401 19.7866Q111.34 19.7866 118.489 15.6691Q125.637 11.5516 129.821 4.50553Q134.005-2.54053 134.005-11.2919Q134.005-20.1028 129.692-27.0695Q125.38-34.0361 117.887-38.0944Q110.394-42.1527 100.888-42.1895Q97.343-48.9334 92.0248-54.0163Q86.7067-59.0993 79.7839-61.9317Q72.8611-64.7641 64.6207-64.7641Q54.2357-64.7641 45.4587-59.8567Q36.6818-54.9492 31.0945-46.56Q25.5073-38.1708 24.575-27.6932Q16.5322-25.3891 11.519-19.0965Q6.50576-12.8039 6.50576-4.14505Q6.50576 6.27459 13.6537 13.0306Q20.8017 19.7866 32.6434 19.7866ZM141.361-16.0786Q148.348-20.5952 152.45-27.6169Q156.551-34.6386 156.551-43.119Q156.551-51.7577 152.352-58.8349Q148.153-65.9121 141.106-70.1106Q134.059-74.3092 125.42-74.3092Q116.593-74.3092 109.435-69.8608Q102.277-65.4125 98.4962-58.317Q102.663-54.0162 105.397-48.8411Q115.484-48.0871 123.177-43.7744Q130.87-39.4617 135.562-32.3468Q140.254-25.2319 141.361-16.0786ZM89.1119-72.3993Q90.5505-70.9384 92.6497-70.9567Q94.7489-70.9751 96.1517-72.3782Q97.5653-73.8169 97.5784-75.8581Q97.5916-77.8994 96.1307-79.3708L86.1751-89.3579Q84.7497-90.7942 82.68-90.7829Q80.6103-90.7716 79.197-89.3579Q77.7466-87.9075 77.7571-85.8485Q77.7676-83.7895 79.218-82.3286ZM125.421-84.5742Q127.481-84.5742 128.948-86.0694Q130.415-87.5647 130.415-89.5431L130.415-103.547Q130.415-105.605 128.948-107.072Q127.481-108.538 125.421-108.538Q123.373-108.538 121.901-107.072Q120.429-105.605 120.429-103.547L120.429-89.5431Q120.429-87.5647 121.901-86.0694Q123.373-84.5742 125.421-84.5742ZM171.753-38.1486L185.779-38.1486Q187.86-38.1486 189.303-39.6042Q190.745-41.0598 190.745-43.1085Q190.745-45.1677 189.303-46.6173Q187.86-48.0669 185.779-48.0669L171.753-48.0669Q169.752-48.0669 168.268-46.6173Q166.784-45.1677 166.784-43.1085Q166.784-41.0598 168.268-39.6042Q169.752-38.1486 171.753-38.1486ZM154.702-72.3677Q156.115-70.9646 158.227-70.9515Q160.339-70.9384 161.789-72.3888L171.671-82.3076Q173.154-83.7685 173.125-85.8328Q173.095-87.897 171.682-89.3474Q170.231-90.761 168.202-90.7619Q166.173-90.7627 164.689-89.3264L154.712-79.3708Q153.299-77.9204 153.299-75.8634Q153.299-73.8064 154.702-72.3677ZM164.679 3.16512Q166.162 4.64828 168.191 4.61859Q170.221 4.58889 171.671 3.13851Q173.084 1.72488 173.109-0.328889Q173.133-2.38265 171.65-3.80642L161.694-13.7689Q160.244-15.1599 158.198-15.1837Q156.152-15.2075 154.691-13.7689Q153.288-12.3658 153.299-10.2718Q153.309-8.17784 154.712-6.76459Z"/>
  </g>
  <g id="Regular-L" transform="matrix(1 0 0 1 1358.77 1556)">
   <path d="M32.4137 18.6111L100.867 18.6111Q109.733 18.6111 116.845 14.5538Q123.957 10.4965 128.122 3.56027Q132.288-3.37592 132.288-11.9703Q132.288-20.54 128.028-27.3416Q123.768-34.1433 116.375-38.1204Q108.981-42.0975 99.6325-42.15Q96.0136-49.041 90.6821-54.0974Q85.3507-59.1539 78.5566-61.9046Q71.7625-64.6553 63.9009-64.6553Q53.7205-64.6553 45.0955-59.7899Q36.4705-54.9245 30.967-46.6273Q25.4635-38.3301 24.5259-27.9838Q16.6196-25.6846 11.6386-19.5124Q6.65753-13.3402 6.65753-4.81292Q6.65753 5.32447 13.6828 11.9678Q20.7081 18.6111 32.4137 18.6111ZM138.922-15.6573Q146.092-20.2061 150.272-27.2328Q154.451-34.2595 154.451-42.7968Q154.451-51.3414 150.299-58.3455Q146.148-65.3495 139.184-69.5009Q132.22-73.6524 123.676-73.6524Q114.839-73.6524 107.716-69.1449Q100.592-64.6374 96.8529-57.4018Q100.952-53.1067 103.628-48.0731Q113.773-47.2717 121.349-43.003Q128.925-38.7344 133.438-31.713Q137.952-24.6917 138.922-15.6573ZM88.3347-71.9088Q89.6063-70.6098 91.4757-70.6361Q93.3452-70.6624 94.5912-71.9088Q95.8376-73.1804 95.8639-74.9971Q95.8901-76.8138 94.5912-78.1128L84.1186-88.5854Q82.8447-89.8597 81.0152-89.8458Q79.1857-89.8318 77.9398-88.5854Q76.6408-87.2864 76.6408-85.4571Q76.6408-83.6279 77.9398-82.3289ZM123.703-84.0522Q125.533-84.0522 126.846-85.3777Q128.159-86.7032 128.159-88.4518L128.159-103.155Q128.159-104.984 126.846-106.283Q125.533-107.582 123.703-107.582Q121.874-107.582 120.561-106.283Q119.248-104.984 119.248-103.155L119.248-88.4518Q119.248-86.7032 120.561-85.3777Q121.874-84.0522 123.703-84.0522ZM169.25-38.3693L183.981-38.3693Q185.838-38.3693 187.11-39.6683Q188.383-40.9673 188.383-42.7968Q188.383-44.6263 187.11-45.9113Q185.838-47.1964 183.981-47.1964L169.25-47.1964Q167.474-47.1964 166.162-45.9113Q164.851-44.6263 164.851-42.7968Q164.851-40.9673 166.162-39.6683Q167.474-38.3693 169.25-38.3693ZM152.815-71.9088Q154.062-70.6624 155.944-70.6361Q157.826-70.6098 159.125-71.9088L169.492-82.3289Q170.819-83.6279 170.778-85.4571Q170.738-87.2864 169.492-88.5854Q168.193-89.8318 166.404-89.8458Q164.615-89.8597 163.288-88.5854L152.815-78.1128Q151.569-76.8138 151.569-74.9971Q151.569-73.1804 152.815-71.9088ZM163.288 3.04748Q164.615 4.37389 166.404 4.33368Q168.193 4.29347 169.492 2.99448Q170.738 1.74802 170.778-0.0812249Q170.819-1.91047 169.492-3.15646L159.019-13.6044Q157.72-14.823 155.917-14.8495Q154.114-14.876 152.815-13.6044Q151.569-12.3579 151.569-10.4885Q151.569-8.61902 152.815-7.37303Z"/>
  </g>
  <g id="Light-L" transform="matrix(1 0 0 1 1062.7 1556)">
   <path d="M31.9173 18.0002L100.714 18.0002Q109.428 18.0002 116.425 14.0289Q123.422 10.0575 127.521 3.27393Q131.62-3.50963 131.62-11.8747Q131.62-20.2537 127.417-26.893Q123.215-33.5324 115.936-37.4237Q108.657-41.3151 99.4606-41.3484Q95.8417-48.2775 90.5771-53.4103Q85.3125-58.543 78.5471-61.3606Q71.7817-64.1782 63.7672-64.1782Q53.7205-64.1782 45.2481-59.3128Q36.7758-54.4474 31.3869-46.1406Q25.998-37.8338 25.0793-27.5067Q17.2112-25.3412 12.0394-19.3216Q6.86756-13.302 6.86756-4.71737Q6.86756 4.92365 13.6352 11.4619Q20.4028 18.0002 31.9173 18.0002ZM137.338-15.8863Q144.794-20.2442 149.222-27.3472Q153.649-34.4502 153.649-43.274Q153.649-51.6659 149.574-58.5364Q145.499-65.4069 138.669-69.4819Q131.839-73.5568 123.447-73.5568Q114.228-73.5568 106.962-68.6582Q99.6955-63.7595 96.2613-55.9704Q100.303-51.5415 102.884-46.6417Q112.705-45.8977 120.042-41.7911Q127.379-37.6846 131.816-31.0068Q136.253-24.329 137.338-15.8863ZM89.6898-72.386Q90.6179-71.4115 92.0293-71.4281Q93.4407-71.4448 94.3811-72.386Q95.3223-73.3141 95.339-74.6918Q95.3556-76.0695 94.3811-77.044L82.8972-88.528Q81.9097-89.5163 80.5381-89.4927Q79.1665-89.4692 78.2261-88.528Q77.2516-87.5535 77.2516-86.1823Q77.2516-84.8111 78.2261-83.8366ZM123.493-84.5294Q124.865-84.5294 125.863-85.5209Q126.861-86.5124 126.861-87.8028L126.861-103.995Q126.861-105.365 125.863-106.34Q124.865-107.315 123.493-107.315Q122.122-107.315 121.124-106.34Q120.126-105.365 120.126-103.995L120.126-87.8028Q120.126-86.5124 121.124-85.5209Q122.122-84.5294 123.493-84.5294ZM167.895-39.9534L184.133-39.9534Q185.551-39.9534 186.509-40.9279Q187.467-41.9024 187.467-43.274Q187.467-44.6455 186.509-45.5965Q185.551-46.5474 184.133-46.5474L167.895-46.5474Q166.558-46.5474 165.59-45.5965Q164.622-44.6455 164.622-43.274Q164.622-41.9024 165.59-40.9279Q166.558-39.9534 167.895-39.9534ZM152.605-72.386Q153.546-71.4448 154.951-71.4281Q156.356-71.4115 157.331-72.386L168.748-83.8366Q169.769-84.8111 169.729-86.1823Q169.688-87.5535 168.748-88.528Q167.773-89.4692 166.442-89.4927Q165.111-89.5163 164.09-88.528L152.605-77.044Q151.665-76.0695 151.665-74.6918Q151.665-73.3141 152.605-72.386ZM164.09 2.07429Q165.111 3.09512 166.442 3.05491Q167.773 3.0147 168.748 2.0402Q169.688 1.09901 169.729-0.272175Q169.769-1.64336 168.748-2.58377L157.263-14.0815Q156.289-14.9756 154.934-14.9926Q153.58-15.0097 152.605-14.0815Q151.665-13.1403 151.665-11.7289Q151.665-10.3175 152.605-9.37713Z"/>
  </g>
  <g id="Thin-L" transform="matrix(1 0 0 1 766.833 1556)">
   <path d="M31.2608 17.1923L100.512 17.1923Q109.024 17.1923 115.87 13.3346Q122.715 9.4769 126.726 2.89521Q130.737-3.68648 130.737-11.7484Q130.737-19.8749 126.61-26.2997Q122.483-32.7245 115.355-36.5024Q108.228-40.2803 99.2333-40.2882Q95.6144-47.2678 90.4382-52.5014Q85.262-57.7351 78.5346-60.6411Q71.8071-63.5471 63.5904-63.5471Q53.7205-63.5471 45.45-58.6817Q37.1795-53.8163 31.9422-45.4968Q26.705-37.1773 25.8113-26.8757Q17.9937-24.887 12.5695-19.0693Q7.14534-13.2516 7.14534-4.59099Q7.14534 4.39353 13.5722 10.7929Q19.9991 17.1923 31.2608 17.1923ZM135.243-16.1891Q143.078-20.2947 147.834-27.4986Q152.589-34.7026 152.589-43.905Q152.589-52.0951 148.615-58.789Q144.64-65.4828 137.987-69.4566Q131.334-73.4304 123.144-73.4304Q113.42-73.4304 105.965-68.0144Q98.5093-62.5983 95.4788-54.0773Q99.4442-49.4715 101.9-44.7486Q111.291-44.0804 118.313-40.1883Q125.334-36.2961 129.671-30.0727Q134.007-23.8494 135.243-16.1891ZM91.482-73.017Q91.9559-72.4717 92.7615-72.4756Q93.5671-72.4796 94.1033-73.017Q94.6408-73.491 94.6447-74.2881Q94.6487-75.0852 94.1033-75.6305L81.2818-88.452Q80.673-89.0621 79.907-89.0258Q79.1411-88.9895 78.6048-88.452Q78.0595-87.9067 78.0595-87.1414Q78.0595-86.376 78.6048-85.8307ZM123.215-85.1604Q123.981-85.1604 124.563-85.7103Q125.145-86.2601 125.145-86.9445L125.145-105.105Q125.145-105.87 124.563-106.416Q123.981-106.962 123.215-106.962Q122.451-106.962 121.869-106.416Q121.287-105.87 121.287-105.105L121.287-86.9445Q121.287-86.2601 121.869-85.7103Q122.451-85.1604 123.215-85.1604ZM166.103-42.0484L184.335-42.0484Q185.173-42.0484 185.714-42.5937Q186.255-43.139 186.255-43.905Q186.255-44.671 185.714-45.18Q185.173-45.689 184.335-45.689L166.103-45.689Q165.346-45.689 164.833-45.18Q164.319-44.671 164.319-43.905Q164.319-43.139 164.833-42.5937Q165.346-42.0484 166.103-42.0484ZM152.327-73.017Q152.865-72.4796 153.639-72.4756Q154.412-72.4717 154.958-73.017L167.764-85.8307Q168.38-86.376 168.34-87.1414Q168.3-87.9067 167.764-88.452Q167.218-88.9895 166.493-89.0258Q165.768-89.0621 165.15-88.452L152.327-75.6305Q151.791-75.0852 151.791-74.2881Q151.791-73.491 152.327-73.017ZM165.15 0.787167Q165.768 1.40383 166.493 1.36362Q167.218 1.32341 167.764 0.778103Q168.3 0.240647 168.34-0.524723Q168.38-1.29009 167.764-1.82634L154.941-14.7126Q154.396-15.1775 153.634-15.182Q152.873-15.1865 152.327-14.7126Q151.791-14.1751 151.791-13.3695Q151.791-12.564 152.327-12.0277Z"/>
  </g>
  <g id="Ultralight-L" transform="matrix(1 0 0 1 470.555 1556)">
   <path d="M30.9246 16.7785L100.409 16.7785Q108.817 16.7785 115.585 12.979Q122.353 9.17953 126.319 2.70124Q130.284-3.77706 130.284-11.6836Q130.284-19.681 126.196-25.9958Q122.108-32.3107 115.058-36.0305Q108.008-39.7503 99.1169-39.7451Q95.498-46.7506 90.3671-52.0359Q85.2362-57.3213 78.5282-60.2726Q71.8202-63.2239 63.4998-63.2239Q53.7205-63.2239 45.5534-58.3585Q37.3863-53.4931 32.2267-45.1671Q27.0671-36.841 26.1862-26.5524Q18.3944-24.6543 12.841-18.94Q7.28762-13.2257 7.28762-4.52626Q7.28762 4.12201 13.54 10.4503Q19.7923 16.7785 30.9246 16.7785ZM134.17-16.3442Q142.199-20.3205 147.123-27.5762Q152.046-34.8318 152.046-44.2282Q152.046-52.3149 148.123-58.9183Q144.201-65.5217 137.638-69.4437Q131.076-73.3657 122.989-73.3657Q113.007-73.3657 105.454-67.6846Q97.9017-62.0036 95.0781-53.1076Q99.0045-48.4113 101.396-43.7789Q110.567-43.1496 117.427-39.3673Q124.287-35.5849 128.572-29.5943Q132.856-23.6037 134.17-16.3442ZM92.3999-73.3402Q92.6413-73.0148 93.1365-73.0122Q93.6318-73.0096 93.9611-73.3402Q94.2917-73.5816 94.2891-74.0813Q94.2865-74.581 93.9611-74.9065L80.4544-88.4132Q80.0396-88.8294 79.5838-88.7866Q79.128-88.7438 78.7988-88.4132Q78.4733-88.0877 78.4733-87.6326Q78.4733-87.1775 78.7988-86.852ZM123.073-85.4836Q123.529-85.4836 123.897-85.8073Q124.265-86.1309 124.265-86.5048L124.265-105.674Q124.265-106.129 123.897-106.455Q123.529-106.781 123.073-106.781Q122.619-106.781 122.25-106.455Q121.882-106.129 121.882-105.674L121.882-86.5048Q121.882-86.1309 122.25-85.8073Q122.619-85.4836 123.073-85.4836ZM165.185-43.1215L184.439-43.1215Q184.979-43.1215 185.307-43.447Q185.635-43.7724 185.635-44.2282Q185.635-44.684 185.307-44.9667Q184.979-45.2494 184.439-45.2494L165.185-45.2494Q164.726-45.2494 164.445-44.9667Q164.164-44.684 164.164-44.2282Q164.164-43.7724 164.445-43.447Q164.726-43.1215 165.185-43.1215ZM152.185-73.3402Q152.516-73.0096 152.966-73.0122Q153.417-73.0148 153.742-73.3402L167.259-86.852Q167.669-87.1775 167.629-87.6326Q167.589-88.0877 167.259-88.4132Q166.934-88.7438 166.519-88.7866Q166.104-88.8294 165.693-88.4132L152.185-74.9065Q151.856-74.581 151.856-74.0813Q151.856-73.5816 152.185-73.3402ZM165.693 0.127909Q166.104 0.537567 166.519 0.497357Q166.934 0.457147 167.259 0.131661Q167.589-0.199003 167.629-0.654076Q167.669-1.10915 167.259-1.43839L153.751-15.0358Q153.426-15.2809 152.968-15.279Q152.511-15.2771 152.185-15.0358Q151.856-14.7051 151.856-14.2098Q151.856-13.7146 152.185-13.3853Z"/>
  </g>
  <g id="Black-M" transform="matrix(1 0 0 1 2856.35 1126)">
   <path d="M26.1908 12.6592L86.4269 12.6592Q93.6409 12.6592 99.3097 9.2182Q104.979 5.77725 108.282-0.141261Q111.585-6.05977 111.585-13.4929Q111.585-21.3769 108.02-27.4876Q104.455-33.5983 98.2251-37.0911Q91.9956-40.584 83.9511-40.5324Q81.547-45.0854 77.5117-49.173Q73.4765-53.2605 67.5235-55.858Q61.5706-58.4555 53.3701-58.4555Q44.4173-58.4555 36.962-54.4577Q29.5067-50.4598 24.827-43.5287Q20.1473-36.5976 19.4565-27.8749Q12.6026-26.1127 8.50385-20.729Q4.40509-15.3453 4.40509-8.00484Q4.40509 1.21301 10.4264 6.93608Q16.4478 12.6592 26.1908 12.6592ZM120.336-22.4321Q124.994-25.7165 127.893-31.1592Q130.792-36.6019 130.792-43.0046Q130.792-50.0836 127.346-55.8617Q123.9-61.6397 118.096-65.0858Q112.292-68.5318 105.213-68.5318Q98.2871-68.5318 92.5313-65.2277Q86.7755-61.9237 83.7596-56.8904Q87.2857-53.4865 89.6391-48.8637Q97.0688-48.5201 103.495-45.0286Q109.921-41.5372 114.361-35.7066Q118.801-29.876 120.336-22.4321ZM73.1186-66.4724Q74.8941-64.6973 77.4345-64.6715Q79.9748-64.6457 81.6874-66.3583Q83.4571-68.1337 83.4028-70.6115Q83.3484-73.0893 81.5732-74.9215L75.9233-80.7427Q74.211-82.5122 71.6447-82.5123Q69.0784-82.5124 67.3087-80.7427Q65.5906-79.0247 65.6477-76.5154Q65.7048-74.0062 67.4229-72.2311ZM105.098-76.0517Q107.607-76.0517 109.354-77.8868Q111.1-79.7218 111.1-82.1687L111.1-90.2675Q111.1-92.7767 109.354-94.5804Q107.607-96.3841 105.098-96.3841Q102.646-96.3841 100.871-94.5804Q99.096-92.7767 99.096-90.2675L99.096-82.1687Q99.096-79.7218 100.871-77.8868Q102.646-76.0517 105.098-76.0517ZM144.257-37.0021L152.356-37.0021Q154.865-37.0021 156.666-38.7488Q158.467-40.4954 158.467-42.9475Q158.467-45.4567 156.666-47.232Q154.865-49.0074 152.356-49.0074L144.257-49.0074Q141.811-49.0074 139.976-47.232Q138.14-45.4567 138.14-42.9475Q138.14-40.4954 139.976-38.7488Q141.811-37.0021 144.257-37.0021ZM128.566-66.3012Q130.336-64.5886 132.879-64.6429Q135.422-64.6973 137.14-66.4154L142.893-72.1169Q144.668-73.8921 144.694-76.4298Q144.72-78.9676 142.95-80.6856Q141.232-82.4553 138.697-82.3981Q136.162-82.3409 134.387-80.5715L128.623-74.9215Q126.853-73.2035 126.853-70.64Q126.853-68.0766 128.566-66.3012ZM134.33-5.26704Q136.105-3.49213 138.64-3.46619Q141.175-3.44025 142.893-5.15834Q144.663-6.92804 144.609-9.40869Q144.554-11.8893 142.779-13.7161L137.129-19.5316Q135.411-21.3015 132.848-21.3043Q130.284-21.307 128.509-19.5316Q126.796-17.819 126.853-15.3072Q126.91-12.7953 128.623-11.0256Z"/>
  </g>
  <g id="Heavy-M" transform="matrix(1 0 0 1 2561.08 1126)">
   <path d="M26.003 11.2837L84.4931 11.2837Q91.6462 11.2837 97.2929 7.90147Q102.94 4.51918 106.234-1.29129Q109.528-7.10176 109.528-14.3829Q109.528-21.9988 106.018-27.9328Q102.507-33.8668 96.3809-37.274Q90.2543-40.6813 82.3784-40.654Q79.8801-45.3874 75.8133-49.4245Q71.7466-53.4617 65.9525-55.9401Q60.1583-58.4185 52.4763-58.4185Q43.757-58.4185 36.4636-54.4746Q29.1703-50.5307 24.5733-43.7195Q19.9764-36.9084 19.2746-28.35Q12.5876-26.5653 8.57103-21.3031Q4.5545-16.0409 4.5545-8.88137Q4.5545 0.0813317 10.4739 5.68254Q16.3934 11.2837 26.003 11.2837ZM117.55-21.843Q122.382-25.2095 125.327-30.6423Q128.272-36.075 128.272-42.4891Q128.272-49.4803 124.87-55.1933Q121.468-60.9063 115.743-64.3084Q110.017-67.7105 103.026-67.7105Q96.1705-67.7105 90.4899-64.4147Q84.8093-61.1188 81.7804-56.0249Q85.2315-52.6569 87.5317-48.1869Q95.1065-47.7701 101.433-44.3003Q107.76-40.8306 111.988-35.046Q116.215-29.2615 117.55-21.843ZM71.8314-65.7414Q73.4666-64.104 75.8108-64.0904Q78.1551-64.0767 79.7324-65.6541Q81.3534-67.2893 81.318-69.5735Q81.2825-71.8577 79.6452-73.5387L73.5498-79.7649Q71.9702-81.3882 69.6135-81.387Q67.2567-81.3859 65.6358-79.7649Q64.042-78.1711 64.0856-75.858Q64.1292-73.5449 65.723-71.9075ZM102.941-75.2802Q105.254-75.2802 106.871-76.9695Q108.488-78.6587 108.488-80.9095L108.488-89.585Q108.488-91.898 106.871-93.5573Q105.254-95.2165 102.941-95.2165Q100.672-95.2165 99.033-93.5573Q97.3945-91.898 97.3945-89.585L97.3945-80.9095Q97.3945-78.6587 99.033-76.9695Q100.672-75.2802 102.941-75.2802ZM141.34-36.9448L150.018-36.9448Q152.334-36.9448 153.985-38.5604Q155.636-40.176 155.636-42.4455Q155.636-44.7586 153.985-46.3949Q152.334-48.0311 150.018-48.0311L141.34-48.0311Q139.087-48.0311 137.399-46.3949Q135.711-44.7586 135.711-42.4455Q135.711-40.176 137.399-38.5604Q139.087-36.9448 141.34-36.9448ZM126.193-65.6105Q127.814-64.0331 130.166-64.0685Q132.517-64.104 134.111-65.6977L140.26-71.8203Q141.9-73.4577 141.913-75.7926Q141.925-78.1275 140.304-79.7213Q138.71-81.3423 136.385-81.2998Q134.059-81.2573 132.419-79.634L126.237-73.5387Q124.616-71.9449 124.616-69.5953Q124.616-67.2456 126.193-65.6105ZM132.376-5.20878Q134.016-3.56913 136.341-3.55666Q138.667-3.54419 140.26-5.13796Q141.881-6.75896 141.847-9.05024Q141.813-11.3415 140.173-13.0061L134.078-19.2182Q132.484-20.8369 130.136-20.8451Q127.787-20.8533 126.15-19.2182Q124.572-17.6408 124.616-15.3184Q124.66-12.9959 126.237-11.375Z"/>
  </g>
  <g id="Bold-M" transform="matrix(1 0 0 1 2265.99 1126)">
   <path d="M25.7929 9.74515L82.3298 9.74515Q89.4148 9.74515 95.0368 6.42851Q100.659 3.11186 103.943-2.57776Q107.227-8.26738 107.227-15.3785Q107.227-22.6945 103.778-28.4308Q100.329-34.1672 94.3179-37.4786Q88.3065-40.7901 80.6192-40.7902Q78.0154-45.7252 73.9134-49.7059Q69.8115-53.6867 64.195-56.0319Q58.5785-58.3772 51.4765-58.3772Q43.0184-58.3772 35.9062-54.4935Q28.794-50.6099 24.2896-43.933Q19.7852-37.2561 19.0712-28.8814Q12.5707-27.0716 8.64617-21.9453Q4.72164-16.819 4.72164-9.86189Q4.72164-1.18461 10.5271 4.28027Q16.3326 9.74515 25.7929 9.74515ZM114.434-21.1839Q119.459-24.6425 122.456-30.064Q125.454-35.4856 125.454-41.9125Q125.454-48.8054 122.101-54.4456Q118.748-60.0859 113.11-63.4388Q107.473-66.7918 100.58-66.7918Q93.8029-66.7918 88.2064-63.5051Q82.6099-60.2185 79.5663-55.0567Q82.9335-51.729 85.1742-47.4297Q92.9114-46.9311 99.127-43.4856Q105.343-40.0402 109.333-34.3071Q113.323-28.574 114.434-21.1839ZM70.3915-64.9235Q71.8697-63.4403 73.9945-63.4403Q76.1194-63.4403 77.5454-64.8664Q79.0001-66.3446 78.9858-68.4123Q78.9716-70.48 77.4883-71.9918L70.8948-78.671Q69.4635-80.1308 67.3412-80.1282Q65.2189-80.1257 63.7644-78.671Q62.3097-77.2163 62.3382-75.1226Q62.3668-73.0289 63.8215-71.5456ZM100.528-74.4172Q102.622-74.4172 104.093-75.9433Q105.565-77.4694 105.565-79.5008L105.565-88.8215Q105.565-90.9151 104.093-92.4127Q102.622-93.9103 100.528-93.9103Q98.4628-93.9103 96.977-92.4127Q95.4912-90.9151 95.4912-88.8215L95.4912-79.5008Q95.4912-77.4694 96.977-75.9433Q98.4628-74.4172 100.528-74.4172ZM138.077-36.8808L147.403-36.8808Q149.502-36.8808 150.985-38.3497Q152.469-39.8187 152.469-41.8839Q152.469-43.9777 150.985-45.4583Q149.502-46.939 147.403-46.939L138.077-46.939Q136.041-46.939 134.517-45.4583Q132.994-43.9777 132.994-41.8839Q132.994-39.8187 134.517-38.3497Q136.041-36.8808 138.077-36.8808ZM123.539-64.8379Q124.994-63.4118 127.13-63.426Q129.267-63.4403 130.722-64.895L137.315-71.4885Q138.803-72.9718 138.801-75.0798Q138.798-77.1877 137.344-78.6424Q135.889-80.0971 133.798-80.0711Q131.707-80.0452 130.218-78.5853L123.568-71.9918Q122.113-70.5371 122.113-68.4266Q122.113-66.316 123.539-64.8379ZM130.19-5.14359Q131.678-3.65526 133.769-3.65786Q135.86-3.66047 137.315-5.11517Q138.77-6.56983 138.758-8.64927Q138.746-10.7287 137.258-12.2118L130.664-18.8676Q129.21-20.3171 127.102-20.3315Q124.994-20.3458 123.51-18.8676Q122.084-17.4415 122.113-15.3309Q122.142-13.2203 123.568-11.7658Z"/>
  </g>
  <g id="Semibold-M" transform="matrix(1 0 0 1 1970.39 1126)">
   <path d="M25.6481 8.68445L80.8384 8.68445Q87.8765 8.68445 93.4815 5.41306Q99.0864 2.14166 102.364-3.46465Q105.641-9.07095 105.641-16.0648Q105.641-23.1741 102.234-28.7742Q98.8277-34.3742 92.8956-37.6197Q86.9636-40.8652 79.4064-40.884Q76.7298-45.9581 72.6036-49.8999Q68.4774-53.8418 62.9834-56.0952Q57.4894-58.3486 50.7872-58.3486Q42.5092-58.3486 35.5219-54.5066Q28.5345-50.6645 24.094-44.0801Q19.6534-37.4958 18.9309-29.2477Q12.5591-27.4206 8.69797-22.388Q4.83686-17.3554 4.83686-10.5379Q4.83686-2.05735 10.5637 3.31355Q16.2906 8.68445 25.6481 8.68445ZM112.285-20.7295Q117.444-24.2515 120.477-29.6654Q123.511-35.0792 123.511-41.5149Q123.511-48.3401 120.192-53.9302Q116.873-59.5203 111.296-62.8393Q105.719-66.1584 98.8936-66.1584Q92.1707-66.1584 86.6321-62.8781Q81.0936-59.5978 78.04-54.3892Q81.3493-51.0893 83.5489-46.9077Q91.3982-46.3527 97.5371-42.924Q103.676-39.4952 107.503-33.7977Q111.329-28.1001 112.285-20.7295ZM69.3988-64.3597Q70.7688-62.9827 72.7424-62.9922Q74.716-63.0016 76.0377-64.3234Q77.3777-65.6934 77.3781-67.6118Q77.3784-69.5302 76.0014-70.9253L69.0644-77.9169Q67.7355-79.264 65.7748-79.2604Q63.8141-79.2569 62.4742-77.9169Q61.1154-76.558 61.1336-74.6156Q61.1517-72.6731 62.5105-71.2961ZM98.8644-73.8222Q100.807-73.8222 102.178-75.2359Q103.55-76.6496 103.55-78.5297L103.55-88.2951Q103.55-90.2376 102.178-91.6237Q100.807-93.0098 98.8644-93.0098Q96.9401-93.0098 95.5596-91.6237Q94.179-90.2376 94.179-88.2951L94.179-78.5297Q94.179-76.6496 95.5596-75.2359Q96.9401-73.8222 98.8644-73.8222ZM135.828-36.8366L145.6-36.8366Q147.55-36.8366 148.918-38.2045Q150.285-39.5724 150.285-41.4968Q150.285-43.4393 148.918-44.8127Q147.55-46.1861 145.6-46.1861L135.828-46.1861Q133.941-46.1861 132.531-44.8127Q131.12-43.4393 131.12-41.4968Q131.12-39.5724 132.531-38.2045Q133.941-36.8366 135.828-36.8366ZM121.709-64.3053Q123.049-62.9834 125.038-62.9831Q127.026-62.9827 128.385-64.3416L135.285-71.2598Q136.669-72.6368 136.656-74.5883Q136.643-76.5399 135.303-77.8987Q133.944-79.2387 132.014-79.2241Q130.085-79.2096 128.701-77.8624L121.727-70.9253Q120.387-69.5665 120.387-67.6209Q120.387-65.6752 121.709-64.3053ZM128.683-5.09866Q130.067-3.71463 131.996-3.72763Q133.926-3.74062 135.285-5.09945Q136.624-6.43945 136.628-8.37284Q136.632-10.3062 135.248-11.6643L128.311-18.626Q126.952-19.9588 125.01-19.9774Q123.068-19.9959 121.691-18.626Q120.369-17.3041 120.387-15.3396Q120.406-13.375 121.727-12.0352Z"/>
  </g>
  <g id="Medium-M" transform="matrix(1 0 0 1 1674.53 1126)">
   <path d="M25.5383 7.88019L79.7076 7.88019Q86.7101 7.88019 92.3021 4.6431Q97.8942 1.40602 101.166-4.13712Q104.438-9.68025 104.438-16.5852Q104.438-23.5378 101.064-29.0345Q97.6891-34.5312 91.8172-37.7266Q85.9454-40.9221 78.4869-40.9551Q75.7551-46.1346 71.6105-50.047Q67.4659-53.9594 62.0647-56.1432Q56.6636-58.327 50.2646-58.327Q42.1231-58.327 35.2305-54.5165Q28.3378-50.7059 23.9456-44.1917Q19.5534-37.6775 18.8246-29.5255Q12.5503-27.6852 8.73725-22.7237Q4.92423-17.7622 4.92423-11.0504Q4.92423-2.71909 10.5915 2.58055Q16.2588 7.88019 25.5383 7.88019ZM110.656-20.385Q115.916-23.9551 118.977-29.3631Q122.038-34.7711 122.038-41.2135Q122.038-47.9873 118.745-53.5394Q115.451-59.0914 109.92-62.3848Q104.389-65.6782 97.615-65.6782Q90.933-65.6782 85.4384-62.4027Q79.9439-59.1272 76.8827-53.8832Q80.1481-50.6042 82.3166-46.5119Q90.2507-45.9141 96.3316-42.4981Q102.412-39.0821 106.115-33.4114Q109.817-27.7408 110.656-20.385ZM68.6461-63.9322Q69.934-62.6358 71.793-62.6524Q73.6519-62.6689 74.8945-63.9117Q76.1476-65.1996 76.159-67.0048Q76.1704-68.81 74.874-70.1167L67.6765-77.3451Q66.4252-78.6068 64.587-78.6024Q62.7489-78.5981 61.496-77.3451Q60.2099-76.0589 60.2201-74.2311Q60.2304-72.4033 61.5165-71.1069ZM97.603-73.3711Q99.4309-73.3711 100.726-74.6995Q102.022-76.0279 102.022-77.7933L102.022-87.8961Q102.022-89.7238 100.726-91.0254Q99.4309-92.327 97.603-92.327Q95.7856-92.327 94.4848-91.0254Q93.1841-89.7238 93.1841-87.8961L93.1841-77.7933Q93.1841-76.0279 94.4848-74.6995Q95.7856-73.3711 97.603-73.3711ZM134.122-36.8031L144.234-36.8031Q146.07-36.8031 147.35-38.0944Q148.63-39.3856 148.63-41.2032Q148.63-43.0311 147.35-44.3232Q146.07-45.6152 144.234-45.6152L134.122-45.6152Q132.348-45.6152 131.024-44.3232Q129.7-43.0311 129.7-41.2032Q129.7-39.3856 131.024-38.0944Q132.348-36.8031 134.122-36.8031ZM120.322-63.9014Q121.575-62.6586 123.451-62.6472Q125.328-62.6358 126.614-63.9219L133.745-71.0864Q135.05-72.3828 135.029-74.2157Q135.008-76.0487 133.755-77.3348Q132.469-78.5878 130.662-78.5819Q128.855-78.5759 127.55-77.3142L120.332-70.1167Q119.079-68.8306 119.079-67.0099Q119.079-65.1893 120.322-63.9014ZM127.54-5.06459Q128.845-3.75966 130.652-3.78053Q132.459-3.80141 133.745-5.08753Q134.998-6.34058 135.014-8.16323Q135.029-9.98589 133.724-11.2491L126.527-18.4427Q125.241-19.6871 123.424-19.7089Q121.608-19.7306 120.311-18.4427Q119.069-17.2 119.079-15.3462Q119.089-13.4923 120.332-12.2394Z"/>
  </g>
  <g id="Regular-M" transform="matrix(1 0 0 1 1378.92 1126)">
   <path d="M25.3951 6.83115L78.2326 6.83115Q85.1887 6.83115 90.7639 3.63881Q96.3391 0.446477 99.6043-5.01426Q102.87-10.475 102.87-17.2641Q102.87-24.0121 99.5368-29.3741Q96.204-34.736 90.4106-37.8662Q84.6173-40.9963 77.2874-41.0479Q74.4837-46.3649 70.3151-50.2389Q66.1465-54.1128 60.8665-56.2058Q55.5864-58.2988 49.5829-58.2988Q41.6195-58.2988 34.8504-54.5294Q28.0813-50.76 23.7522-44.3373Q19.423-37.9146 18.6859-29.8879Q12.5388-28.0304 8.78848-23.1615Q5.03818-18.2927 5.03818-11.719Q5.03818-3.58223 10.6278 1.62446Q16.2174 6.83115 25.3951 6.83115ZM108.531-19.9357Q113.923-23.5685 117.02-28.9689Q120.116-34.3692 120.116-40.8203Q120.116-47.5272 116.856-53.0296Q113.596-58.532 108.125-61.7919Q102.654-65.0518 95.9473-65.0518Q89.3187-65.0518 83.8815-61.7826Q78.4442-58.5134 75.3731-53.223Q78.5812-49.9716 80.7093-45.9957Q88.7541-45.3421 94.7592-41.9426Q100.764-38.5432 104.305-32.9076Q107.845-27.2721 108.531-19.9357ZM67.6644-63.3746Q68.8452-62.1833 70.5546-62.2091Q72.264-62.235 73.4034-63.3746Q74.5431-64.5555 74.5689-66.2131Q74.5947-67.8707 73.4034-69.062L65.8662-76.5992Q64.7161-77.7495 63.0378-77.7442Q61.3595-77.7389 60.22-76.5992Q59.0287-75.4079 59.0287-73.7297Q59.0287-72.0515 60.22-70.8602ZM95.9577-72.7826Q97.636-72.7826 98.8326-73.9999Q100.029-75.2171 100.029-76.8329L100.029-87.3755Q100.029-89.0536 98.8326-90.245Q97.636-91.4364 95.9577-91.4364Q94.2796-91.4364 93.083-90.245Q91.8863-89.0536 91.8863-87.3755L91.8863-76.8329Q91.8863-75.2171 93.083-73.9999Q94.2796-72.7826 95.9577-72.7826ZM131.898-36.7594L142.451-36.7594Q144.139-36.7594 145.305-37.9507Q146.47-39.142 146.47-40.8203Q146.47-42.4986 145.305-43.6846Q144.139-44.8706 142.451-44.8706L131.898-44.8706Q130.271-44.8706 129.059-43.6846Q127.847-42.4986 127.847-40.8203Q127.847-39.142 129.059-37.9507Q130.271-36.7594 131.898-36.7594ZM118.512-63.3746Q119.652-62.235 121.382-62.2091Q123.112-62.1833 124.303-63.3746L131.737-70.8602Q132.939-72.0515 132.907-73.7297Q132.876-75.4079 131.737-76.5992Q130.545-77.7389 128.898-77.7442Q127.251-77.7495 126.049-76.5992L118.512-69.062Q117.373-67.8707 117.373-66.2131Q117.373-64.5555 118.512-63.3746ZM126.049-5.02014Q127.251-3.81838 128.898-3.84953Q130.545-3.88068 131.737-5.07199Q132.876-6.21163 132.907-7.88984Q132.939-9.56806 131.737-10.7075L124.199-18.2037Q123.008-19.3327 121.356-19.3586Q119.703-19.3846 118.512-18.2037Q117.373-17.0641 117.373-15.3547Q117.373-13.6453 118.512-12.5059Z"/>
  </g>
  <g id="Light-M" transform="matrix(1 0 0 1 1082.78 1126)">
   <path d="M24.9501 6.28349L78.0958 6.28349Q84.915 6.28349 90.3874 3.1682Q95.8598 0.0529111 99.0653-5.27098Q102.271-10.5949 102.271-17.1784Q102.271-23.7554 98.9893-28.9719Q95.7078-34.1884 90.0171-37.2416Q84.3263-40.2948 77.1333-40.3292Q74.3296-45.6804 70.2209-49.6228Q66.1123-53.5651 60.858-55.7181Q55.6037-57.871 49.463-57.871Q41.6195-57.871 34.9872-54.1016Q28.3549-50.3322 24.1286-43.9009Q19.9023-37.4695 19.182-29.4601Q13.0692-27.7225 9.14784-22.9905Q5.22648-18.2585 5.22648-11.6333Q5.22648-3.94159 10.5851 1.17095Q15.9437 6.28349 24.9501 6.28349ZM107.111-20.1409Q112.76-23.6027 116.079-29.0715Q119.398-34.5403 119.398-41.2481Q119.398-47.8181 116.206-53.2008Q113.015-58.5835 107.663-61.7748Q102.312-64.9661 95.742-64.9661Q88.7711-64.9661 83.2056-61.3462Q77.6401-57.7262 74.8427-51.9397Q77.9994-48.5683 80.042-44.7123Q87.7959-44.1102 93.5871-40.8561Q99.3784-37.6019 102.85-32.2744Q106.322-26.9469 107.111-20.1409ZM68.8793-63.8024Q69.7522-62.902 71.0509-62.9192Q72.3496-62.9364 73.2151-63.8024Q74.0811-64.6753 74.0983-65.9394Q74.1155-67.2034 73.2151-68.1038L64.7712-76.5478Q63.8778-77.4416 62.61-77.4277Q61.3422-77.4137 60.4767-76.5478Q59.5764-75.6474 59.5764-74.3799Q59.5764-73.1123 60.4767-72.2119ZM95.7694-73.2104Q97.0372-73.2104 97.9515-74.1282Q98.8658-75.046 98.8658-76.251L98.8658-88.1284Q98.8658-89.3957 97.9515-90.2963Q97.0372-91.1969 95.7694-91.1969Q94.5021-91.1969 93.5878-90.2963Q92.6735-89.3957 92.6735-88.1284L92.6735-76.251Q92.6735-75.046 93.5878-74.1282Q94.5021-73.2104 95.7694-73.2104ZM130.683-38.1796L142.587-38.1796Q143.883-38.1796 144.766-39.08Q145.649-39.9803 145.649-41.2481Q145.649-42.5159 144.766-43.4023Q143.883-44.2887 142.587-44.2887L130.683-44.2887Q129.45-44.2887 128.546-43.4023Q127.642-42.5159 127.642-41.2481Q127.642-39.9803 128.546-39.08Q129.45-38.1796 130.683-38.1796ZM118.324-63.8024Q119.19-62.9364 120.492-62.9192Q121.794-62.902 122.694-63.8024L131.07-72.2119Q131.997-73.1123 131.966-74.3799Q131.935-75.6474 131.07-76.5478Q130.169-77.4137 128.933-77.4277Q127.696-77.4416 126.768-76.5478L118.324-68.1038Q117.458-67.2034 117.458-65.9394Q117.458-64.6753 118.324-63.8024ZM126.768-5.89266Q127.696-4.96487 128.933-4.99602Q130.169-5.02717 131.07-5.92754Q131.935-6.7935 131.966-8.06104Q131.997-9.32858 131.07-10.1941L122.625-18.6315Q121.725-19.4696 120.474-19.487Q119.224-19.5044 118.324-18.6315Q117.458-17.7655 117.458-16.4668Q117.458-15.1682 118.324-14.3027Z"/>
  </g>
  <g id="Thin-M" transform="matrix(1 0 0 1 786.83 1126)">
   <path d="M24.3615 5.55917L77.9148 5.55917Q84.553 5.55917 89.8895 2.54578Q95.226-0.467612 98.3524-5.61052Q101.479-10.7534 101.479-17.0651Q101.479-23.4158 98.2652-28.4399Q95.0515-33.4641 89.4965-36.4156Q83.9416-39.3671 76.9295-39.3787Q74.1258-44.7751 70.0964-48.808Q66.067-52.8408 60.8468-55.073Q55.6265-57.3053 49.3045-57.3053Q41.6195-57.3053 35.1682-53.5358Q28.7169-49.7664 24.6265-43.3237Q20.5361-36.8809 19.8383-28.8943Q13.7707-27.3152 9.62311-22.7642Q5.47553-18.2132 5.47553-11.52Q5.47553-4.41686 10.5286 0.571152Q15.5817 5.55917 24.3615 5.55917ZM105.233-20.4124Q111.221-23.6479 114.834-29.2072Q118.447-34.7665 118.447-41.8139Q118.447-48.2029 115.346-53.4272Q112.245-58.6515 107.052-61.7522Q101.86-64.8528 95.4705-64.8528Q88.0468-64.8528 82.3117-60.769Q76.5766-56.6852 74.1412-50.2424Q77.2298-46.7125 79.1595-43.015Q86.5286-42.4809 92.037-39.419Q97.5453-36.3571 100.927-31.437Q104.308-26.5169 105.233-20.4124ZM70.4861-64.3682Q70.9518-63.8526 71.7074-63.8584Q72.4629-63.8642 72.9661-64.3682Q73.4701-64.8339 73.4759-65.5774Q73.4817-66.3209 72.9661-66.8365L63.3229-76.4797Q62.7691-77.0344 62.0442-77.009Q61.3194-76.9837 60.8163-76.4797Q60.3007-75.9641 60.3007-75.2397Q60.3007-74.5153 60.8163-73.9997ZM95.5204-73.7762Q96.2452-73.7762 96.7861-74.298Q97.3271-74.8198 97.3271-75.4815L97.3271-89.1242Q97.3271-89.8482 96.7861-90.3642Q96.2452-90.8802 95.5204-90.8802Q94.7964-90.8802 94.2555-90.3642Q93.7145-89.8482 93.7145-89.1242L93.7145-75.4815Q93.7145-74.8198 94.2555-74.298Q94.7964-73.7762 95.5204-73.7762ZM129.076-40.0579L142.768-40.0579Q143.543-40.0579 144.053-40.5735Q144.563-41.089 144.563-41.8139Q144.563-42.5387 144.053-43.0289Q143.543-43.5192 142.768-43.5192L129.076-43.5192Q128.363-43.5192 127.867-43.0289Q127.371-42.5387 127.371-41.8139Q127.371-41.089 127.867-40.5735Q128.363-40.0579 129.076-40.0579ZM118.075-64.3682Q118.579-63.8642 119.315-63.8584Q120.051-63.8526 120.567-64.3682L130.187-73.9997Q130.752-74.5153 130.721-75.2397Q130.69-75.9641 130.187-76.4797Q129.671-76.9837 128.978-77.009Q128.285-77.0344 127.719-76.4797L118.075-66.8365Q117.572-66.3209 117.572-65.5774Q117.572-64.8339 118.075-64.3682ZM127.719-7.04663Q128.285-6.48119 128.978-6.51234Q129.671-6.54349 130.187-7.05908Q130.69-7.56306 130.721-8.28746Q130.752-9.01186 130.187-9.51499L120.543-19.1973Q120.027-19.6505 119.309-19.6568Q118.59-19.663 118.075-19.1973Q117.572-18.6933 117.572-17.9377Q117.572-17.1822 118.075-16.679Z"/>
  </g>
  <g id="Ultralight-M" transform="matrix(1 0 0 1 490.508 1126)">
   <path d="M24.06 5.18817L77.8221 5.18817Q84.3676 5.18817 89.6345 2.22698Q94.9014-0.734221 97.9872-5.78443Q101.073-10.8346 101.073-17.0071Q101.073-23.2419 97.8943-28.1675Q94.7154-33.0931 89.2299-35.9925Q83.7445-38.8919 76.8251-38.8918Q74.0214-44.3114 70.0326-48.3906Q66.0439-52.4698 60.841-54.7427Q55.6382-57.0155 49.2233-57.0155Q41.6195-57.0155 35.2609-53.2461Q28.9023-49.4766 24.8815-43.028Q20.8608-36.5795 20.1744-28.6046Q14.13-27.1067 9.86655-22.6484Q5.60309-18.19 5.60309-11.4619Q5.60309-4.6603 10.4997 0.263938Q15.3963 5.18817 24.06 5.18817ZM104.271-20.5514Q110.433-23.6711 114.197-29.2767Q117.96-34.8824 117.96-42.1037Q117.96-48.4 114.906-53.5432Q111.851-58.6864 106.739-61.7406Q101.628-64.7948 95.3315-64.7948Q87.6758-64.7948 81.8539-60.4734Q76.0319-56.152 73.7819-49.373Q76.8356-45.7619 78.7075-42.1457Q85.8795-41.6464 91.243-38.683Q96.6064-35.7195 99.9415-31.0081Q103.277-26.2966 104.271-20.5514ZM71.3091-64.6579Q71.5663-64.3394 72.0436-64.3394Q72.521-64.3394 72.8385-64.6579Q73.1571-64.9151 73.1571-65.392Q73.157-65.8689 72.8385-66.1874L62.5811-76.4448Q62.2012-76.8258 61.7545-76.7946Q61.3077-76.7634 60.9902-76.4448Q60.6717-76.1263 60.6717-75.6801Q60.6717-75.2339 60.9902-74.9154ZM95.3928-74.066Q95.8395-74.066 96.1892-74.3849Q96.5389-74.7039 96.5389-75.0873L96.5389-89.6343Q96.5389-90.0799 96.1892-90.399Q95.8395-90.718 95.3928-90.718Q94.9471-90.718 94.5974-90.399Q94.2477-90.0799 94.2477-89.6343L94.2477-75.0873Q94.2477-74.7039 94.5974-74.3849Q94.9471-74.066 95.3928-74.066ZM128.253-41.0199L142.861-41.0199Q143.369-41.0199 143.688-41.3384Q144.006-41.6569 144.006-42.1037Q144.006-42.5504 143.688-42.8377Q143.369-43.125 142.861-43.125L128.253-43.125Q127.807-43.125 127.519-42.8377Q127.231-42.5504 127.231-42.1037Q127.231-41.6569 127.519-41.3384Q127.807-41.0199 128.253-41.0199ZM117.947-64.6579Q118.266-64.3394 118.712-64.3394Q119.159-64.3394 119.477-64.6579L129.735-74.9154Q130.115-75.2339 130.084-75.6801Q130.053-76.1263 129.735-76.4448Q129.417-76.7634 129.001-76.7946Q128.586-76.8258 128.206-76.4448L117.947-66.1874Q117.63-65.8689 117.63-65.392Q117.63-64.9151 117.947-64.6579ZM128.206-7.63769Q128.586-7.25784 129.001-7.289Q129.417-7.32015 129.735-7.63865Q130.053-7.95723 130.084-8.40343Q130.115-8.84963 129.735-9.16717L119.477-19.487Q119.158-19.7432 118.712-19.7437Q118.266-19.7442 117.947-19.487Q117.63-19.1685 117.63-18.6911Q117.63-18.2138 117.947-17.8962Z"/>
  </g>
  <g id="Black-S" transform="matrix(1 0 0 1 2872.61 696)">
   <path d="M20.5566 2.68555L68.3105 2.68555Q73.9746 2.68555 78.418-0.0244141Q82.8613-2.73438 85.4492-7.39746Q88.0371-12.0605 88.0371-17.9199Q88.0371-24.1699 85.2295-29.0039Q82.4219-33.8379 77.5146-36.5967Q72.6074-39.3555 66.2598-39.3066Q64.4043-42.8223 61.2549-46.0449Q58.1055-49.2676 53.3936-51.3428Q48.6816-53.418 42.0898-53.418Q35.0098-53.418 29.126-50.2686Q23.2422-47.1191 19.5557-41.6504Q15.8691-36.1816 15.332-29.2969Q9.91211-27.9297 6.66504-23.6816Q3.41797-19.4336 3.41797-13.623Q3.41797-6.34766 8.1543-1.83105Q12.8906 2.68555 20.5566 2.68555ZM95.0684-25.3906Q98.6816-27.9297 100.952-32.2021Q103.223-36.4746 103.223-41.5039Q103.223-47.0703 100.513-51.6113Q97.8027-56.1523 93.2373-58.8623Q88.6719-61.5723 83.1055-61.5723Q77.6367-61.5723 73.0957-58.96Q68.5547-56.3477 66.2109-52.3926Q68.9941-49.707 70.8496-46.0449Q76.6113-45.8008 81.665-43.0664Q86.7188-40.332 90.2588-35.7666Q93.7988-31.2012 95.0684-25.3906ZM57.7637-59.9609Q59.1797-58.5449 61.2061-58.5205Q63.2324-58.4961 64.5996-59.8633Q66.0156-61.2793 65.9668-63.2568Q65.918-65.2344 64.502-66.6992L60.1562-71.1914Q58.7891-72.6074 56.7383-72.6074Q54.6875-72.6074 53.2715-71.1914Q51.9043-69.8242 51.9531-67.8223Q52.002-65.8203 53.3691-64.4043ZM83.0078-67.4805Q85.0098-67.4805 86.4014-68.9453Q87.793-70.4102 87.793-72.3633L87.793-78.6133Q87.793-80.6152 86.4014-82.0557Q85.0098-83.4961 83.0078-83.4961Q81.0547-83.4961 79.6387-82.0557Q78.2227-80.6152 78.2227-78.6133L78.2227-72.3633Q78.2227-70.4102 79.6387-68.9453Q81.0547-67.4805 83.0078-67.4805ZM113.867-36.7188L120.117-36.7188Q122.119-36.7188 123.56-38.1104Q125-39.502 125-41.4551Q125-43.457 123.56-44.873Q122.119-46.2891 120.117-46.2891L113.867-46.2891Q111.914-46.2891 110.449-44.873Q108.984-43.457 108.984-41.4551Q108.984-39.502 110.449-38.1104Q111.914-36.7188 113.867-36.7188ZM101.465-59.8145Q102.881-58.4473 104.907-58.4961Q106.934-58.5449 108.301-59.9121L112.744-64.3066Q114.16-65.7227 114.185-67.749Q114.209-69.7754 112.793-71.1426Q111.426-72.5586 109.399-72.5098Q107.373-72.4609 105.957-71.0449L101.514-66.6992Q100.098-65.332 100.098-63.2812Q100.098-61.2305 101.465-59.8145ZM105.908-11.8164Q107.324-10.4004 109.351-10.376Q111.377-10.3516 112.744-11.7188Q114.16-13.1348 114.111-15.1123Q114.062-17.0898 112.646-18.5547L108.301-23.0469Q106.934-24.4629 104.883-24.4629Q102.832-24.4629 101.416-23.0469Q100.049-21.6797 100.098-19.6777Q100.146-17.6758 101.514-16.2598Z"/>
  </g>
  <g id="Heavy-S" transform="matrix(1 0 0 1 2577.06 696)">
   <path d="M20.4529 1.5792L66.6741 1.5792Q72.3036 1.5792 76.7412-1.09043Q81.1788-3.76005 83.7666-8.34823Q86.3545-12.9364 86.3545-18.6921Q86.3545-24.7346 83.5873-29.4361Q80.82-34.1375 75.9877-36.8329Q71.1553-39.5283 64.9345-39.5026Q62.9983-43.168 59.8143-46.3388Q56.6303-49.5096 52.051-51.4753Q47.4716-53.441 41.3408-53.441Q34.4451-53.441 28.6823-50.3377Q22.9195-47.2344 19.2906-41.8694Q15.6617-36.5043 15.1131-29.7579Q9.83144-28.3561 6.67656-24.1945Q3.52169-20.0329 3.52169-14.3837Q3.52169-7.26961 8.20039-2.84521Q12.8791 1.5792 20.4529 1.5792ZM92.8672-24.8605Q96.5957-27.4918 98.8777-31.7469Q101.16-36.0021 101.16-41.0084Q101.16-46.5171 98.4786-51.0178Q95.7975-55.5185 91.2839-58.1996Q86.7703-60.8808 81.2616-60.8808Q75.8965-60.8808 71.4362-58.3204Q66.9758-55.7599 64.586-51.8164Q67.3116-49.1769 69.1325-45.63Q75.0555-45.3168 80.0516-42.5824Q85.0477-39.848 88.4149-35.2826Q91.782-30.7171 92.8672-24.8605ZM56.5075-59.281Q57.8428-57.9456 59.754-57.9328Q61.6651-57.9199 62.9516-59.2064Q64.2754-60.5417 64.2439-62.404Q64.2123-64.2663 62.877-65.639L58.2662-70.3616Q56.9797-71.6855 55.0557-71.6855Q53.1317-71.6855 51.8079-70.3616Q50.5098-69.0636 50.5471-67.1769Q50.5844-65.2902 51.8825-63.9548ZM81.1869-66.766Q83.0737-66.766 84.3903-68.1444Q85.707-69.5228 85.707-71.3607L85.707-77.9333Q85.707-79.82 84.3903-81.174Q83.0737-82.528 81.1869-82.528Q79.3375-82.528 78.0022-81.174Q76.6669-79.82 76.6669-77.9333L76.6669-71.3607Q76.6669-69.5228 78.0022-68.1444Q79.3375-66.766 81.1869-66.766ZM111.528-36.4883L118.1-36.4883Q119.987-36.4883 121.335-37.805Q122.684-39.1216 122.684-40.9711Q122.684-42.8578 121.335-44.1931Q119.987-45.5284 118.1-45.5284L111.528-45.5284Q109.69-45.5284 108.311-44.1931Q106.933-42.8578 106.933-40.9711Q106.933-39.1216 108.311-37.805Q109.69-36.4883 111.528-36.4883ZM99.4596-59.1691Q100.783-57.8826 102.7-57.9141Q104.617-57.9456 105.915-59.2437L110.578-63.8802Q111.913-65.2156 111.926-67.1209Q111.939-69.0263 110.615-70.3243Q109.317-71.6482 107.417-71.6109Q105.518-71.5736 104.182-70.2497L99.4969-65.639Q98.1731-64.3409 98.1731-62.4227Q98.1731-60.5044 99.4596-59.1691ZM104.145-11.6551Q105.48-10.3197 107.38-10.3068Q109.28-10.2939 110.578-11.592Q111.901-12.9158 111.87-14.7839Q111.838-16.6519 110.503-18.013L105.892-22.7242Q104.594-24.048 102.676-24.0538Q100.758-24.0595 99.4223-22.7242Q98.1358-21.4377 98.1731-19.5452Q98.2104-17.6527 99.4969-16.3289Z"/>
  </g>
  <g id="Bold-S" transform="matrix(1 0 0 1 2281.65 696)">
   <path d="M20.3369 0.341797L64.8438 0.341797Q70.4346 0.341797 74.8657-2.28271Q79.2969-4.90723 81.8848-9.41162Q84.4727-13.916 84.4727-19.5557Q84.4727-25.3662 81.7505-29.9194Q79.0283-34.4727 74.2798-37.0972Q69.5312-39.7217 63.4521-39.7217Q61.4258-43.5547 58.2031-46.6675Q54.9805-49.7803 50.5493-51.6235Q46.1182-53.4668 40.5029-53.4668Q33.8135-53.4668 28.186-50.415Q22.5586-47.3633 18.9941-42.1143Q15.4297-36.8652 14.8682-30.2734Q9.74121-28.833 6.68945-24.7681Q3.6377-20.7031 3.6377-15.2344Q3.6377-8.30078 8.25195-3.97949Q12.8662 0.341797 20.3369 0.341797ZM90.4053-24.2676Q94.2627-27.002 96.5576-31.2378Q98.8525-35.4736 98.8525-40.4541Q98.8525-45.8984 96.2036-50.354Q93.5547-54.8096 89.0991-57.4585Q84.6436-60.1074 79.1992-60.1074Q73.9502-60.1074 69.5801-57.605Q65.21-55.1025 62.7686-51.1719Q65.4297-48.584 67.2119-45.166Q73.3154-44.7754 78.2471-42.041Q83.1787-39.3066 86.3525-34.7412Q89.5264-30.1758 90.4053-24.2676ZM55.1025-58.5205Q56.3477-57.2754 58.1299-57.2754Q59.9121-57.2754 61.1084-58.4717Q62.3291-59.7168 62.3169-61.4502Q62.3047-63.1836 61.0596-64.4531L56.1523-69.4336Q54.9561-70.6543 53.1738-70.6543Q51.3916-70.6543 50.1709-69.4336Q48.9502-68.2129 48.9746-66.4551Q48.999-64.6973 50.2197-63.4521ZM79.1504-65.9668Q80.9082-65.9668 82.1411-67.2485Q83.374-68.5303 83.374-70.2393L83.374-77.1729Q83.374-78.9307 82.1411-80.188Q80.9082-81.4453 79.1504-81.4453Q77.417-81.4453 76.1719-80.188Q74.9268-78.9307 74.9268-77.1729L74.9268-70.2393Q74.9268-68.5303 76.1719-67.2485Q77.417-65.9668 79.1504-65.9668ZM108.911-36.2305L115.845-36.2305Q117.603-36.2305 118.848-37.4634Q120.093-38.6963 120.093-40.4297Q120.093-42.1875 118.848-43.4326Q117.603-44.6777 115.845-44.6777L108.911-44.6777Q107.202-44.6777 105.92-43.4326Q104.639-42.1875 104.639-40.4297Q104.639-38.6963 105.92-37.4634Q107.202-36.2305 108.911-36.2305ZM97.2168-58.4473Q98.4375-57.251 100.232-57.2632Q102.026-57.2754 103.247-58.4961L108.154-63.4033Q109.399-64.6484 109.399-66.4185Q109.399-68.1885 108.179-69.4092Q106.958-70.6299 105.2-70.6055Q103.442-70.5811 102.197-69.3604L97.2412-64.4531Q96.0205-63.2324 96.0205-61.4624Q96.0205-59.6924 97.2168-58.4473ZM102.173-11.4746Q103.418-10.2295 105.176-10.2295Q106.934-10.2295 108.154-11.4502Q109.375-12.6709 109.363-14.4165Q109.351-16.1621 108.105-17.4072L103.198-22.3633Q101.978-23.584 100.208-23.5962Q98.4375-23.6084 97.1924-22.3633Q95.9961-21.167 96.0205-19.397Q96.0449-17.627 97.2412-16.4062Z"/>
  </g>
  <g id="Semibold-S" transform="matrix(1 0 0 1 1985.84 696)">
   <path d="M20.2569-0.511328L63.5818-0.511328Q69.146-0.511328 73.5727-3.10474Q77.9994-5.69814 80.5873-10.1448Q83.1752-14.5914 83.1752-20.1511Q83.1752-25.8017 80.4841-30.2527Q77.7931-34.7037 73.1023-37.2793Q68.4115-39.855 62.4302-39.8728Q60.3416-43.8213 57.0923-46.8941Q53.843-49.9669 49.514-51.7257Q45.1851-53.4846 39.9253-53.4846Q33.378-53.4846 27.8439-50.4684Q22.3098-47.4521 18.7897-42.2831Q15.2697-37.1141 14.6993-30.6289Q9.679-29.1618 6.69834-25.1635Q3.71768-21.1652 3.71768-15.8209Q3.71768-9.01172 8.2875-4.76152Q12.8573-0.511328 20.2569-0.511328ZM88.7079-23.8588Q92.6542-26.6643 94.958-30.8868Q97.2618-35.1093 97.2618-40.072Q97.2618-45.4719 94.6351-49.8963Q92.0084-54.3208 87.5928-56.9475Q83.1772-59.5742 77.7773-59.5742Q72.6083-59.5742 68.3004-57.1118Q63.9925-54.6493 61.5155-50.7275Q64.1322-48.1752 65.8878-44.8461Q72.1157-44.4021 77.0029-41.6678Q81.8901-38.9334 84.9307-34.368Q87.9712-29.8025 88.7079-23.8588ZM54.1339-57.9962Q55.3168-56.8133 57.0102-56.8222Q58.7035-56.8311 59.8376-57.9651Q60.9872-59.148 60.9883-60.7926Q60.9895-62.4371 59.8065-63.6355L54.6949-68.7938Q53.5608-69.9434 51.8764-69.9434Q50.1919-69.9434 49.0423-68.7938Q47.8749-67.6264 47.8904-65.9574Q47.906-64.2885 49.0733-63.1056ZM77.7463-65.4158Q79.4152-65.4158 80.5904-66.6309Q81.7655-67.846 81.7655-69.4661L81.7655-76.6485Q81.7655-78.3175 80.5904-79.5082Q79.4152-80.6988 77.7463-80.6988Q76.0929-80.6988 74.91-79.5082Q73.7271-78.3175 73.7271-76.6485L73.7271-69.4661Q73.7271-67.846 74.91-66.6309Q76.0929-65.4158 77.7463-65.4158ZM107.107-36.0527L114.29-36.0527Q115.958-36.0527 117.133-37.2279Q118.307-38.403 118.307-40.0564Q118.307-41.7254 117.133-42.9083Q115.958-44.0912 114.29-44.0912L107.107-44.0912Q105.487-44.0912 104.272-42.9083Q103.057-41.7254 103.057-40.0564Q103.057-38.403 104.272-37.2279Q105.487-36.0527 107.107-36.0527ZM95.6705-57.9496Q96.8201-56.8155 98.5301-56.8144Q100.24-56.8133 101.408-57.9807L106.484-63.0745Q107.667-64.2574 107.658-65.9341Q107.649-67.6108 106.499-68.7782Q105.332-69.9278 103.672-69.9123Q102.012-69.8968 100.829-68.7472L95.686-63.6355Q94.5364-62.4682 94.5364-60.8003Q94.5364-59.1325 95.6705-57.9496ZM100.813-11.3502Q101.996-10.1673 103.656-10.1762Q105.316-10.1851 106.484-11.3524Q107.633-12.5021 107.634-14.1632Q107.635-15.8244 106.453-16.9896L101.341-22.1145Q100.174-23.2641 98.5057-23.2807Q96.8379-23.2974 95.655-22.1145Q94.5209-20.9804 94.5364-19.2948Q94.552-17.6092 95.686-16.4596Z"/>
  </g>
  <g id="Medium-S" transform="matrix(1 0 0 1 1689.81 696)">
   <path d="M20.1963-1.1582L62.625-1.1582Q68.1689-1.1582 72.5923-3.72803Q77.0156-6.29785 79.6035-10.7007Q82.1914-15.1035 82.1914-20.6025Q82.1914-26.1318 79.5239-30.5054Q76.8564-34.8789 72.2095-37.4175Q67.5625-39.9561 61.6553-39.9873Q59.5195-44.0234 56.25-47.0659Q52.9805-50.1084 48.729-51.8032Q44.4775-53.498 39.4873-53.498Q33.0479-53.498 27.5845-50.5088Q22.1211-47.5195 18.6348-42.4111Q15.1484-37.3027 14.5713-30.8984Q9.63184-29.4111 6.70508-25.4634Q3.77832-21.5156 3.77832-16.2656Q3.77832-9.55078 8.31445-5.35449Q12.8506-1.1582 20.1963-1.1582ZM87.4209-23.5488Q91.4346-26.4082 93.7451-30.6206Q96.0557-34.833 96.0557-39.7822Q96.0557-45.1484 93.4458-49.5493Q90.8359-53.9502 86.4507-56.5601Q82.0654-59.1699 76.6992-59.1699Q71.5908-59.1699 67.3301-56.7378Q63.0693-54.3057 60.5654-50.3906Q63.1484-47.8652 64.8838-44.6035Q71.2061-44.1191 76.0596-41.3848Q80.9131-38.6504 83.8525-34.085Q86.792-29.5195 87.4209-23.5488ZM53.3994-57.5986Q54.5352-56.4629 56.1611-56.4785Q57.7871-56.4941 58.874-57.5811Q59.9697-58.7168 59.981-60.2939Q59.9922-61.8711 58.8564-63.0156L53.5898-68.3086Q52.5029-69.4043 50.8926-69.4043Q49.2822-69.4043 48.1865-68.3086Q47.0596-67.1816 47.0684-65.5801Q47.0771-63.9785 48.2041-62.8428ZM76.6816-64.998Q78.2832-64.998 79.4146-66.1626Q80.5459-67.3271 80.5459-68.8799L80.5459-76.251Q80.5459-77.8525 79.4146-78.9927Q78.2832-80.1328 76.6816-80.1328Q75.0889-80.1328 73.9531-78.9927Q72.8174-77.8525 72.8174-76.251L72.8174-68.8799Q72.8174-67.3271 73.9531-66.1626Q75.0889-64.998 76.6816-64.998ZM105.739-35.918L113.11-35.918Q114.712-35.918 115.832-37.0493Q116.952-38.1807 116.952-39.7734Q116.952-41.375 115.832-42.5107Q114.712-43.6465 113.11-43.6465L105.739-43.6465Q104.187-43.6465 103.022-42.5107Q101.857-41.375 101.857-39.7734Q101.857-38.1807 103.022-37.0493Q104.187-35.918 105.739-35.918ZM94.498-57.5723Q95.5938-56.4854 97.2397-56.4741Q98.8857-56.4629 100.013-57.5898L105.217-62.8252Q106.353-63.9609 106.337-65.5669Q106.321-67.1729 105.226-68.2998Q104.099-69.3955 102.513-69.3867Q100.927-69.3779 99.791-68.2822L94.5068-63.0156Q93.4111-61.8887 93.4111-60.2983Q93.4111-58.708 94.498-57.5723ZM99.7822-11.2559Q100.918-10.1201 102.504-10.1357Q104.09-10.1514 105.217-11.2783Q106.312-12.374 106.324-13.9712Q106.335-15.5684 105.199-16.6729L99.9326-21.9258Q98.8057-23.0215 97.2153-23.0415Q95.625-23.0615 94.4893-21.9258Q93.4023-20.8389 93.4111-19.2173Q93.4199-17.5957 94.5068-16.5Z"/>
  </g>
  <g id="Regular-S" transform="matrix(1 0 0 1 1393.99 696)">
   <path d="M20.1172-2.00195L61.377-2.00195Q66.8945-2.00195 71.3135-4.54102Q75.7324-7.08008 78.3203-11.4258Q80.9082-15.7715 80.9082-21.1914Q80.9082-26.5625 78.2715-30.835Q75.6348-35.1074 71.0449-37.5977Q66.4551-40.0879 60.6445-40.1367Q58.4473-44.2871 55.1514-47.29Q51.8555-50.293 47.7051-51.9043Q43.5547-53.5156 38.916-53.5156Q32.6172-53.5156 27.2461-50.5615Q21.875-47.6074 18.4326-42.5781Q14.9902-37.5488 14.4043-31.25Q9.57031-29.7363 6.71387-25.8545Q3.85742-21.9727 3.85742-16.8457Q3.85742-10.2539 8.34961-6.12793Q12.8418-2.00195 20.1172-2.00195ZM85.7422-23.1445Q89.8438-26.0742 92.1631-30.2734Q94.4824-34.4727 94.4824-39.4043Q94.4824-44.7266 91.8945-49.0967Q89.3066-53.4668 84.9609-56.0547Q80.6152-58.6426 75.293-58.6426Q70.2637-58.6426 66.0645-56.25Q61.8652-53.8574 59.3262-49.9512Q61.8652-47.4609 63.5742-44.2871Q70.0195-43.75 74.8291-41.0156Q79.6387-38.2812 82.4463-33.7158Q85.2539-29.1504 85.7422-23.1445ZM52.4414-57.0801Q53.5156-56.0059 55.0537-56.0303Q56.5918-56.0547 57.6172-57.0801Q58.6426-58.1543 58.667-59.6436Q58.6914-61.1328 57.6172-62.207L52.1484-67.6758Q51.123-68.7012 49.6094-68.7012Q48.0957-68.7012 47.0703-67.6758Q45.9961-66.6016 45.9961-65.0879Q45.9961-63.5742 47.0703-62.5ZM75.293-64.4531Q76.8066-64.4531 77.8809-65.5518Q78.9551-66.6504 78.9551-68.1152L78.9551-75.7324Q78.9551-77.2461 77.8809-78.3203Q76.8066-79.3945 75.293-79.3945Q73.7793-79.3945 72.7051-78.3203Q71.6309-77.2461 71.6309-75.7324L71.6309-68.1152Q71.6309-66.6504 72.7051-65.5518Q73.7793-64.4531 75.293-64.4531ZM103.955-35.7422L111.572-35.7422Q113.086-35.7422 114.136-36.8164Q115.186-37.8906 115.186-39.4043Q115.186-40.918 114.136-41.9922Q113.086-43.0664 111.572-43.0664L103.955-43.0664Q102.49-43.0664 101.392-41.9922Q100.293-40.918 100.293-39.4043Q100.293-37.8906 101.392-36.8164Q102.49-35.7422 103.955-35.7422ZM92.9688-57.0801Q93.9941-56.0547 95.5566-56.0303Q97.1191-56.0059 98.1934-57.0801L103.564-62.5Q104.639-63.5742 104.614-65.0879Q104.59-66.6016 103.564-67.6758Q102.49-68.7012 101.001-68.7012Q99.5117-68.7012 98.4375-67.6758L92.9688-62.207Q91.9434-61.1328 91.9434-59.6436Q91.9434-58.1543 92.9688-57.0801ZM98.4375-11.1328Q99.5117-10.0586 101.001-10.083Q102.49-10.1074 103.564-11.1816Q104.59-12.207 104.614-13.7207Q104.639-15.2344 103.564-16.2598L98.0957-21.6797Q97.0215-22.7051 95.5322-22.7295Q94.043-22.7539 92.9688-21.6797Q91.9434-20.6543 91.9434-19.1162Q91.9434-17.5781 92.9688-16.5527Z"/>
  </g>
  <g id="Light-S" transform="matrix(1 0 0 1 1097.78 696)">
   <path d="M19.7235-2.48642L61.2559-2.48642Q66.6524-2.48642 70.9805-4.95733Q75.3085-7.42823 77.8435-11.6529Q80.3785-15.8775 80.3785-21.1156Q80.3785-26.3354 77.7871-30.4792Q75.1958-34.623 70.6968-37.0452Q66.1977-39.4674 60.5082-39.5009Q58.311-43.6816 55.0681-46.745Q51.8252-49.8085 47.6976-51.4729Q43.5699-53.1372 38.81-53.1372Q32.6172-53.1372 27.3671-50.1831Q22.1171-47.229 18.7656-42.1921Q15.4142-37.1552 14.8432-30.8716Q10.0395-29.464 7.03176-25.7032Q4.024-21.9424 4.024-16.7699Q4.024-10.5718 8.31184-6.52911Q12.5997-2.48642 19.7235-2.48642ZM84.4859-23.3261Q88.8145-26.1045 91.3306-30.3642Q93.8466-34.624 93.8466-39.7827Q93.8466-44.9839 91.3193-49.2481Q88.7919-53.5123 84.5523-56.0396Q80.3126-58.5668 75.1114-58.5668Q69.7792-58.5668 65.4666-55.864Q61.1539-53.1611 58.857-48.8159Q61.3505-46.2196 62.984-43.1519Q69.1719-42.6603 73.7923-40.0544Q78.4126-37.4486 81.1597-33.1557Q83.9068-28.8628 84.4859-23.3261ZM53.5161-57.4585Q54.318-56.6416 55.4928-56.6584Q56.6676-56.6752 57.4506-57.4585Q58.2339-58.2603 58.2507-59.4014Q58.2675-60.5426 57.4506-61.3594L51.1798-67.6303Q50.3815-68.4288 49.231-68.4212Q48.0804-68.4135 47.2974-67.6303Q46.4806-66.8134 46.4806-65.663Q46.4806-64.5126 47.2974-63.6958ZM75.1264-64.8315Q76.2769-64.8315 77.1014-65.6653Q77.9259-66.4991 77.9259-67.6005L77.9259-76.3985Q77.9259-77.5487 77.1014-78.3657Q76.2769-79.1827 75.1264-79.1827Q73.9761-79.1827 73.1517-78.3657Q72.3272-77.5487 72.3272-76.3985L72.3272-67.6005Q72.3272-66.4991 73.1517-65.6653Q73.9761-64.8315 75.1264-64.8315ZM102.88-36.9985L111.693-36.9985Q112.859-36.9985 113.659-37.8153Q114.459-38.6322 114.459-39.7827Q114.459-40.9332 113.659-41.7425Q112.859-42.5517 111.693-42.5517L102.88-42.5517Q101.764-42.5517 100.938-41.7425Q100.111-40.9332 100.111-39.7827Q100.111-38.6322 100.938-37.8153Q101.764-36.9985 102.88-36.9985ZM92.8022-57.4585Q93.5855-56.6752 94.7695-56.6584Q95.9536-56.6416 96.7705-57.4585L102.974-63.6958Q103.806-64.5126 103.782-65.663Q103.757-66.8134 102.974-67.6303Q102.157-68.4135 101.031-68.4212Q99.9054-68.4288 99.0733-67.6303L92.8022-61.3594Q92.0191-60.5426 92.0191-59.4014Q92.0191-58.2603 92.8022-57.4585ZM99.0733-11.9047Q99.9054-11.0728 101.031-11.0972Q102.157-11.1216 102.974-11.9385Q103.757-12.7218 103.782-13.8721Q103.806-15.0225 102.974-15.8056L96.7031-22.0581Q95.8862-22.8261 94.7526-22.843Q93.619-22.86 92.8022-22.0581Q92.0191-21.2748 92.0191-20.1Q92.0191-18.9252 92.8022-18.1422Z"/>
  </g>
  <g id="Thin-S" transform="matrix(1 0 0 1 801.741 696)">
   <path d="M19.2028-3.12717L61.0958-3.12717Q66.3322-3.12717 70.54-5.50793Q74.7478-7.8887 77.2128-11.9532Q79.6779-16.0178 79.6779-21.0154Q79.6779-26.035 77.1466-30.0086Q74.6153-33.9822 70.2363-36.3144Q65.8573-38.6467 60.3279-38.6601Q58.1307-42.8807 54.9579-46.0242Q51.7852-49.1678 47.6877-50.9022Q43.5901-52.6367 38.6697-52.6367Q32.6172-52.6367 27.5272-49.6826Q22.4373-46.7285 19.2061-41.6815Q15.9749-36.6345 15.4238-30.3711Q10.6601-29.1037 7.4522-25.503Q4.24431-21.9024 4.24431-16.6697Q4.24431-10.9922 8.2619-7.0597Q12.2795-3.12717 19.2028-3.12717ZM82.8243-23.5663Q87.4533-26.1445 90.2296-30.4843Q93.0058-34.8241 93.0058-40.2832Q93.0058-45.3243 90.5585-49.4484Q88.1111-53.5725 84.0117-56.0195Q79.9123-58.4666 74.8712-58.4666Q69.1385-58.4666 64.6758-55.3534Q60.2132-52.2402 58.2364-47.3145Q60.6697-44.5779 62.2033-41.6504Q68.0509-41.219 72.421-38.7832Q76.7911-36.3474 79.4581-32.4149Q82.1252-28.4824 82.8243-23.5663ZM54.9375-57.959Q55.3792-57.4825 56.0735-57.4892Q56.7678-57.4959 57.2303-57.959Q57.6934-58.4006 57.7001-59.0812Q57.7068-59.7619 57.2303-60.2384L49.8986-67.5701Q49.4007-68.0686 48.7305-68.0509Q48.0603-68.0331 47.5978-67.5701Q47.1213-67.0936 47.1213-66.4237Q47.1213-65.7538 47.5978-65.2773ZM74.9061-65.332Q75.5763-65.332 76.0705-65.8155Q76.5647-66.2989 76.5647-66.9197L76.5647-77.2794Q76.5647-77.949 76.0705-78.4257Q75.5763-78.9025 74.9061-78.9025Q74.2365-78.9025 73.7423-78.4257Q73.2481-77.949 73.2481-77.2794L73.2481-66.9197Q73.2481-66.2989 73.7423-65.8155Q74.2365-65.332 74.9061-65.332ZM101.459-38.6601L111.853-38.6601Q112.558-38.6601 113.028-39.1365Q113.498-39.613 113.498-40.2832Q113.498-40.9534 113.028-41.4122Q112.558-41.8709 111.853-41.8709L101.459-41.8709Q100.803-41.8709 100.337-41.4122Q99.8712-40.9534 99.8712-40.2832Q99.8712-39.613 100.337-39.1365Q100.803-38.6601 101.459-38.6601ZM92.5819-57.959Q93.0449-57.4959 93.7285-57.4892Q94.4121-57.4825 94.8886-57.959L102.194-65.2773Q102.705-65.7538 102.68-66.4237Q102.656-67.0936 102.194-67.5701Q101.717-68.0331 101.072-68.0509Q100.426-68.0686 99.9142-67.5701L92.5819-60.2384Q92.1194-59.7619 92.1194-59.0812Q92.1194-58.4006 92.5819-57.959ZM99.9142-12.9255Q100.426-12.4142 101.072-12.4386Q101.717-12.463 102.194-12.9395Q102.656-13.4025 102.68-14.0724Q102.705-14.7424 102.194-15.2048L94.8612-22.5586Q94.3848-22.9862 93.7215-22.9932Q93.0583-23.0002 92.5819-22.5586Q92.1194-22.0955 92.1194-21.4012Q92.1194-20.7069 92.5819-20.2444Z"/>
  </g>
  <g id="Ultralight-S" transform="matrix(1 0 0 1 505.373 696)">
   <path d="M18.9362-3.45535L61.0138-3.45535Q66.1682-3.45535 70.3144-5.78995Q74.4606-8.12454 76.8898-12.1071Q79.319-16.0896 79.319-20.9641Q79.319-25.8812 76.8185-29.7676Q74.3179-33.654 70.0005-35.9402Q65.683-38.2263 60.2356-38.2294Q58.0383-42.4706 54.9015-45.6551Q51.7647-48.8396 47.6826-50.61Q43.6005-52.3804 38.5979-52.3804Q32.6172-52.3804 27.6093-49.4263Q22.6013-46.4722 19.4317-41.42Q16.2621-36.3678 15.7211-30.1147Q10.9779-28.9192 7.66754-25.4005Q4.35715-21.8819 4.35715-16.6183Q4.35715-11.2076 8.23631-7.33147Q12.1155-3.45535 18.9362-3.45535ZM81.9733-23.6893Q86.7561-26.165 89.6656-30.5458Q92.5751-34.9266 92.5751-40.5396Q92.5751-45.4987 90.1688-49.551Q87.7625-53.6034 83.7349-56.0093Q79.7073-58.4152 74.7482-58.4152Q68.8103-58.4152 64.2708-55.0919Q59.7313-51.7685 57.9185-46.5454Q60.321-43.737 61.8034-40.8813Q67.4767-40.4808 71.7186-38.1321Q75.9605-35.7834 78.5866-32.0354Q81.2126-28.2875 81.9733-23.6893ZM55.6656-58.2153Q55.9227-57.9132 56.3709-57.9147Q56.8192-57.9163 57.1175-58.2153Q57.4165-58.4724 57.4181-58.9172Q57.4196-59.362 57.1175-59.6642L49.2424-67.5392Q48.8983-67.8841 48.4741-67.8612Q48.0499-67.8383 47.7516-67.5392Q47.4495-67.2371 47.4495-66.8133Q47.4495-66.3895 47.7516-66.0873ZM74.7932-65.5884Q75.2174-65.5884 75.5424-65.8924Q75.8675-66.1964 75.8675-66.571L75.8675-77.7306Q75.8675-78.154 75.5424-78.4565Q75.2174-78.759 74.7932-78.759Q74.3698-78.759 74.0448-78.4565Q73.7198-78.154 73.7198-77.7306L73.7198-66.571Q73.7198-66.1964 74.0448-65.8924Q74.3698-65.5884 74.7932-65.5884ZM100.731-39.5111L111.935-39.5111Q112.405-39.5111 112.705-39.8132Q113.006-40.1154 113.006-40.5396Q113.006-40.9637 112.705-41.243Q112.405-41.5222 111.935-41.5222L100.731-41.5222Q100.311-41.5222 100.029-41.243Q99.7482-40.9637 99.7482-40.5396Q99.7482-40.1154 100.029-39.8132Q100.311-39.5111 100.731-39.5111ZM92.469-58.2153Q92.7681-57.9163 93.1953-57.9147Q93.6226-57.9132 93.9247-58.2153L101.794-66.0873Q102.141-66.3895 102.116-66.8133Q102.092-67.2371 101.794-67.5392Q101.492-67.8383 101.092-67.8612Q100.693-67.8841 100.345-67.5392L92.469-59.6642Q92.1707-59.362 92.1707-58.9172Q92.1707-58.4724 92.469-58.2153ZM100.345-13.4483Q100.693-13.1012 101.092-13.1256Q101.492-13.15 101.794-13.4521Q102.092-13.7512 102.116-14.175Q102.141-14.5988 101.794-14.8972L93.9178-22.8149Q93.6157-23.0682 93.1934-23.0701Q92.7711-23.0721 92.469-22.8149Q92.1707-22.5159 92.1707-22.0676Q92.1707-21.6194 92.469-21.3211Z"/>
  </g>
 </g>
</svg>
